<svg width="445" height="297" viewBox="0 0 445 297" fill="none" xmlns="http://www.w3.org/2000/svg">
<path d="M105.268 232.361L87.4193 242.666L47.6031 191.67L65.9094 181.101L154.237 204.089L136.389 214.393L120.828 210.166L97.9454 223.377L105.268 232.361ZM90.1652 214.129L104.81 205.674L75.9778 197.483L90.1652 214.129ZM96.5688 163.399L133.181 142.261C139.161 138.809 144.928 137.065 150.481 137.029C155.973 136.959 161.495 138.527 167.048 141.733C170.709 143.847 172.906 146.031 173.638 148.286C174.31 150.505 173.943 152.548 172.54 154.416C174.249 153.852 176.171 153.412 178.306 153.095C180.442 152.777 182.669 152.725 184.988 152.936C187.368 153.112 189.839 153.588 192.402 154.363C194.965 155.067 197.498 156.142 199.999 157.586C205.979 161.039 208.969 164.386 208.969 167.627C208.969 170.868 205.979 174.215 199.999 177.668L160.641 200.391L96.5688 163.399ZM180.778 165.513C177.117 163.399 173.455 163.399 169.794 165.513L151.488 176.082L164.302 183.481L182.608 172.912C186.27 170.798 186.27 168.684 182.608 166.57L180.778 165.513ZM152.403 152.302C148.742 150.188 145.081 150.188 141.419 152.302L125.859 161.286L138.673 168.684L154.234 159.7C157.895 157.586 157.895 155.473 154.234 153.359L152.403 152.302ZM221.963 111.084C218.302 108.97 214.641 108.97 210.98 111.084L195.419 120.068C191.758 122.182 191.758 124.296 195.419 126.41L224.709 143.32C228.371 145.434 232.032 145.434 235.693 143.32L251.253 134.336C254.915 132.223 254.915 130.109 251.253 127.995L221.963 111.084ZM267.729 118.483C274.136 122.182 277.34 125.723 277.34 129.105C277.34 132.416 274.136 135.922 267.729 139.621L244.846 152.832C238.439 156.532 232.337 158.399 226.54 158.434C220.743 158.399 214.641 156.532 208.234 152.832L178.944 135.922C172.536 132.223 169.333 128.717 169.333 125.405C169.333 122.023 172.536 118.483 178.944 114.783L201.826 101.572C208.234 97.8728 214.336 96.0408 220.133 96.0761C225.93 96.0408 232.032 97.8728 238.439 101.572L267.729 118.483ZM273.264 61.3845L289.74 51.8723L336.421 78.8236C342.828 82.5228 346.031 86.0635 346.031 89.4456C346.031 92.7573 342.828 96.2627 336.421 99.9619L315.368 112.116C308.961 115.816 302.859 117.683 297.062 117.718C291.265 117.683 285.163 115.816 278.756 112.116L232.075 85.1651L248.55 75.6529L295.231 102.604C298.893 104.718 302.554 104.718 306.215 102.604L319.945 94.6773C323.606 92.5635 323.606 90.4497 319.945 88.3358L273.264 61.3845ZM397.747 63.4984L381.271 73.0106L330.013 43.417L310.792 54.5146L297.977 47.1162L352.896 15.4088L365.711 22.8072L346.489 33.9048L397.747 63.4984Z" fill="white"/>
<path d="M257.902 165.565L274.378 156.052L274.378 209.955C274.378 217.353 272.913 223.589 269.984 228.662C267.116 233.63 262.478 237.963 256.071 241.663L235.019 253.817C228.612 257.516 223.944 258.556 221.015 256.935C218.147 255.209 216.713 250.646 216.713 243.248L216.713 189.345L233.188 179.833L233.188 233.736C233.188 237.963 235.019 239.02 238.68 236.906L252.41 228.98C256.071 226.866 257.902 223.695 257.902 219.467L257.902 165.565ZM300.922 163.979C300.922 168.207 302.752 169.264 306.414 167.15L322.889 157.638C328.869 154.185 333.263 153.269 336.07 154.89C338.877 156.51 340.28 160.773 340.28 167.679L340.28 172.963C340.28 179.868 338.877 185.752 336.07 190.614C333.263 195.475 328.869 199.633 322.889 203.085C321.059 204.142 319.106 205.234 317.031 206.362C315.017 207.454 312.943 208.546 310.807 209.638C308.732 210.765 306.627 211.875 304.491 212.967C302.417 214.095 300.433 215.134 298.542 216.085C294.087 218.375 289.663 220.577 285.27 222.691L285.27 208.423C289.724 206.133 294.057 203.913 298.267 201.764C301.867 199.897 305.59 197.924 309.434 195.845C313.278 193.767 316.543 191.952 319.228 190.402C320.631 189.592 321.73 188.5 322.523 187.126C323.377 185.646 323.804 184.096 323.804 182.475L323.804 172.963L302.752 185.118C296.345 188.817 291.677 189.856 288.748 188.236C285.88 186.509 284.446 181.947 284.446 174.548L284.446 171.378C284.446 163.979 285.88 157.796 288.748 152.829C291.677 147.756 296.345 143.37 302.752 139.67L334.88 121.121L334.88 135.918L306.414 152.353C302.752 154.467 300.922 157.638 300.922 161.866L300.922 163.979Z" fill="white"/>
</svg>
