<svg width="349" height="322" viewBox="0 0 349 322" fill="none" xmlns="http://www.w3.org/2000/svg">
<path d="M105.522 0L106.469 237.765L198.332 18.4609L108.217 238.489L277.011 71.0331L109.555 239.828L329.584 149.713L110.28 241.576L348.045 242.522L110.28 243.469L329.584 335.332L109.555 245.217L277.011 414.011L108.217 246.555L198.332 466.584L106.469 247.28L105.522 485.045L104.576 247.28L12.713 466.584L102.828 246.555L-65.9669 414.011L101.489 245.217L-118.539 335.332L100.765 243.469L-137 242.522L100.765 241.576L-118.539 149.713L101.489 239.828L-65.9669 71.0331L102.828 238.489L12.713 18.4609L104.576 237.765L105.522 0Z" fill="white"/>
</svg>
