<svg width="245" height="247" viewBox="0 0 245 247" fill="none" xmlns="http://www.w3.org/2000/svg">
<path d="M88.6792 43.5359C85.0179 41.4221 81.3566 41.4221 77.6954 43.5359L62.135 52.5197C58.4738 54.6335 58.4738 56.7473 62.135 58.8612L91.4251 75.7718C95.0864 77.8856 98.7476 77.8856 102.409 75.7718L117.969 66.788C121.63 64.6742 121.63 62.5604 117.969 60.4465L88.6792 43.5359ZM134.445 50.9343C140.852 54.6335 144.056 58.1742 144.056 61.5563C144.056 64.868 140.852 68.3734 134.445 72.0726L111.562 85.284C105.155 88.9832 99.0527 90.8504 93.2557 90.8857C87.4587 90.8504 81.3566 88.9832 74.9494 85.284L45.6594 68.3734C39.2522 64.6742 36.0486 61.1688 36.0486 57.8571C36.0486 54.475 39.2522 50.9343 45.6594 47.2351L68.5422 34.0237C74.9494 30.3245 81.0515 28.4925 86.8485 28.5277C92.6455 28.4925 98.7476 30.3245 105.155 34.0237L134.445 50.9343Z" fill="white"/>
<path d="M109.183 180.912L91.7916 190.952L69.8241 159.245L69.8241 203.635L53.3484 213.148L53.3484 139.164L70.7394 129.123L92.7069 160.83L92.7069 116.44L109.183 106.928L109.183 180.912ZM133.481 166.883L115.633 177.188L139.889 89.1997L158.195 78.6306L182.451 138.61L164.602 148.915L160.483 138.082L137.6 151.293L133.481 166.883ZM141.719 135.175L156.364 126.72L149.042 106.11L141.719 135.175ZM142.634 84.3379L148.126 63.1997L164.602 53.6874L154.534 77.468L142.634 84.3379ZM202.584 76.2546C202.584 80.4823 204.415 81.5392 208.076 79.4254L224.551 69.9131C230.532 66.4605 234.925 65.5445 237.732 67.1651C240.539 68.7858 241.942 73.0486 241.942 79.9538L241.942 85.2384C241.942 92.1435 240.539 98.027 237.732 102.889C234.925 107.751 230.532 111.908 224.552 115.36C222.721 116.417 220.768 117.509 218.693 118.637C216.68 119.729 214.605 120.821 212.469 121.913C210.395 123.041 208.289 124.15 206.154 125.243C204.079 126.37 202.096 127.409 200.204 128.36C195.75 130.65 191.326 132.852 186.932 134.966L186.932 120.698C191.387 118.408 195.719 116.188 199.93 114.039C203.53 112.172 207.252 110.199 211.096 108.121C214.941 106.042 218.205 104.228 220.89 102.677C222.294 101.867 223.392 100.775 224.185 99.401C225.04 97.9213 225.467 96.3712 225.467 94.7506L225.467 85.2384L204.415 97.3929C198.007 101.092 193.339 102.131 190.41 100.511C187.542 98.7845 186.108 94.2221 186.108 86.8237L186.108 83.653C186.108 76.2546 187.542 70.0717 190.41 65.1042C193.339 60.031 198.007 55.6448 204.415 51.9456L236.542 33.3967L236.542 48.1935L208.076 64.6286C204.415 66.7424 202.584 69.9131 202.584 74.1408L202.584 76.2546Z" fill="white"/>
</svg>
