<svg width="115" height="115" viewBox="0 0 115 115" fill="none" xmlns="http://www.w3.org/2000/svg">
<path d="M51.5056 9.47457L51.7182 10.7262L48.5015 11.2724L48.289 10.0208L51.5056 9.47457Z" fill="#0B0B0B"/>
<path d="M32.9078 12.4601L34.2825 11.8035L37.7214 19.0034L41.4158 17.2389L37.977 10.0389L39.3459 9.3851L43.3456 17.7592L36.9075 20.8342L32.9078 12.4601Z" fill="#0B0B0B"/>
<path d="M22.2524 26.9074C21.1798 25.8436 20.6127 24.7477 20.5512 23.6199C20.4867 22.495 20.9417 21.4413 21.9161 20.4588C22.9025 19.4643 23.9553 18.9917 25.0747 19.0409C26.194 19.0961 27.2975 19.6631 28.3852 20.7419C29.4729 21.8206 30.043 22.9164 30.0954 24.0294C30.1449 25.1453 29.6765 26.2005 28.6901 27.1951C27.7187 28.1746 26.6718 28.6382 25.5494 28.586C24.4271 28.5338 23.3281 27.9742 22.2524 26.9074ZM27.2408 21.8777C26.4296 21.0731 25.6512 20.626 24.9058 20.5363C24.1633 20.4496 23.4732 20.7277 22.8355 21.3707C22.2008 22.0107 21.9298 22.6985 22.0226 23.4343C22.1125 24.173 22.5675 24.9491 23.3878 25.7627C24.196 26.5643 24.9699 27.0099 25.7094 27.0996C26.4459 27.1924 27.1315 26.9187 27.7662 26.2787C28.4069 25.6327 28.6823 24.9374 28.5925 24.1927C28.4996 23.4509 28.0491 22.6793 27.2408 21.8777Z" fill="#0B0B0B"/>
<path d="M16.3586 39.9371C15.4901 39.5073 14.9652 38.8935 14.784 38.0956C14.6028 37.2977 14.7722 36.3734 15.2921 35.3228L15.72 34.4581L12.6081 32.9181L13.2809 31.5584L21.5985 35.6744L20.4132 38.0696C19.8989 39.1088 19.3018 39.7812 18.6217 40.0868C17.9398 40.3962 17.1854 40.3463 16.3586 39.9371ZM16.8635 35.024L16.506 35.7465C16.1606 36.4444 16.0286 37.0165 16.11 37.4628C16.1913 37.9091 16.4899 38.2598 17.0057 38.5151C17.4836 38.7516 17.9123 38.782 18.292 38.6063C18.6717 38.4306 19.0145 38.0337 19.3204 37.4155L19.7878 36.4711L16.8635 35.024Z" fill="#0B0B0B"/>
<path d="M7.32754 48.252L7.5858 46.7571L15.4483 48.1154L15.913 45.4257L17.1953 45.6472L16.0077 52.5215L14.7254 52.2999L15.1901 49.6103L7.32754 48.252Z" fill="#0B0B0B"/>
<path d="M9.61303 64.0625L9.63209 64.188C9.74643 64.9411 10.0365 65.4985 10.5023 65.86C10.9729 66.2252 11.5681 66.3531 12.2877 66.2439C12.9571 66.1422 13.4583 65.8628 13.7912 65.4056C14.1248 64.9527 14.2391 64.381 14.1343 63.6907L14.0876 63.3832L9.61303 64.0625ZM6.79326 63.0396L8.2053 62.8252L8.17386 62.6181C8.06015 61.8692 8.09608 61.1896 8.28164 60.5794C8.47201 59.9726 8.81679 59.4666 9.31596 59.0612C9.81512 58.6558 10.3994 58.4023 11.0688 58.3007C11.7173 58.2022 12.3232 58.26 12.8865 58.4741C13.4539 58.6876 13.9257 59.0462 14.3017 59.5498C14.682 60.0527 14.928 60.6724 15.0398 61.4088L15.0961 61.779L16.2257 61.6075L16.441 63.0258L15.3114 63.1973L15.3695 63.5802C15.482 64.3207 15.433 64.9852 15.2227 65.5735C15.0131 66.1661 14.6705 66.644 14.1949 67.0072C13.7241 67.3741 13.1582 67.6076 12.4971 67.708C11.8152 67.8116 11.1778 67.7435 10.585 67.504C9.99216 67.2644 9.5169 66.8828 9.1592 66.3593C8.80213 65.84 8.56611 65.2017 8.45113 64.4444L8.42064 64.2436L7.0086 64.458L6.79326 63.0396ZM13.8723 61.9648L13.8256 61.6573C13.7202 60.9628 13.4388 60.4491 12.9817 60.1162C12.5287 59.7826 11.9696 59.6663 11.3043 59.7673C10.5931 59.8753 10.0645 60.1717 9.71868 60.6565C9.37701 61.1407 9.26429 61.7656 9.38054 62.5312L9.39769 62.6442L13.8723 61.9648Z" fill="#0B0B0B"/>
<path d="M18.5608 82.0547C17.2391 82.7866 16.0283 83.0241 14.9284 82.7673C13.8305 82.5143 12.9463 81.7824 12.276 80.5719C11.5974 79.3465 11.4385 78.2034 11.7992 77.1426C12.1657 76.0835 13.019 75.1829 14.3592 74.4408C15.6993 73.6987 16.911 73.4583 17.9941 73.7196C19.0792 73.9846 19.9611 74.7297 20.6396 75.9551C21.3079 77.162 21.4598 78.2969 21.0954 79.3597C20.731 80.4225 19.8861 81.3209 18.5608 82.0547ZM15.1291 75.8575C14.1295 76.4109 13.4823 77.033 13.1875 77.7235C12.8964 78.412 12.9701 79.1523 13.4088 79.9446C13.8455 80.7331 14.4299 81.1858 15.1622 81.3028C15.8966 81.4234 16.7691 81.2039 17.7797 80.6443C18.7756 80.0928 19.4201 79.4747 19.7133 78.7899C20.0086 78.1089 19.9379 77.374 19.5012 76.5855C19.0605 75.7896 18.4701 75.3304 17.73 75.2082C16.9919 75.0896 16.125 75.306 15.1291 75.8575Z" fill="#0B0B0B"/>
<path d="M25.6828 96.6279L24.5434 95.6262L29.8115 89.6336L27.8283 87.8901C25.789 89.7035 24.3704 90.9102 23.5724 91.5103C22.7776 92.1131 22.1164 92.439 21.5888 92.4879C21.064 92.5337 20.5802 92.3534 20.1373 91.9471C19.9052 91.7432 19.7193 91.5093 19.5794 91.2454L20.4134 90.2967C20.5247 90.5354 20.6662 90.7302 20.8378 90.8811C21.0666 91.0823 21.3647 91.1021 21.7322 90.9405C22.1056 90.7785 22.782 90.2942 23.7616 89.4876C24.7444 88.6837 26.0701 87.5475 27.7387 86.0788L31.8101 89.658L25.6828 96.6279Z" fill="#0B0B0B"/>
<path d="M34.0177 101.942L38.095 93.605L39.4578 94.2716L35.3805 102.608L34.0177 101.942Z" fill="#0B0B0B"/>
<path d="M52.2726 102.741C52.0058 104.228 51.4257 105.317 50.5321 106.008C49.6428 106.699 48.5171 106.923 47.155 106.679C45.7763 106.431 44.7895 105.833 44.1945 104.883C43.6045 103.931 43.4447 102.7 43.7152 101.192C43.9857 99.6846 44.5642 98.5932 45.4506 97.9181C46.3411 97.2438 47.4757 97.0303 48.8545 97.2777C50.2123 97.5213 51.1884 98.1199 51.7826 99.0734C52.3768 100.027 52.5401 101.249 52.2726 102.741ZM45.2999 101.49C45.0982 102.614 45.172 103.509 45.5214 104.173C45.8715 104.834 46.4923 105.244 47.3837 105.404C48.2709 105.563 48.991 105.396 49.5439 104.902C50.1011 104.408 50.4816 103.593 50.6856 102.456C50.8867 101.335 50.8142 100.445 50.4682 99.7856C50.1264 99.1267 49.5119 98.7177 48.6247 98.5585C47.7291 98.3978 47.0003 98.5659 46.4383 99.0627C45.8804 99.5602 45.501 100.369 45.2999 101.49Z" fill="#0B0B0B"/>
<path d="M60.1122 104.657L59.9716 103.395L63.2143 103.034L63.3548 104.295L60.1122 104.657Z" fill="#0B0B0B"/>
<path d="M78.8505 102.741L77.4405 103.317L74.4194 95.9324L70.63 97.4826L73.6511 104.868L72.2469 105.442L68.7332 96.8527L75.3367 94.1512L78.8505 102.741Z" fill="#0B0B0B"/>
<path d="M90.3155 88.9268C91.3254 90.0503 91.8289 91.1768 91.8257 92.3063C91.8257 93.433 91.3112 94.4589 90.2821 95.384C89.2404 96.3205 88.1622 96.7321 87.0475 96.6188C85.9332 96.4996 84.8639 95.8704 83.8398 94.7312C82.8156 93.5919 82.3092 92.4653 82.3205 91.3511C82.335 90.2342 82.8631 89.2075 83.9048 88.2711C84.9307 87.3488 86.0024 86.9458 87.1199 87.0622C88.2375 87.1786 89.3026 87.8001 90.3155 88.9268ZM85.0473 93.6627C85.8111 94.5124 86.5626 95.0034 87.3017 95.1356C88.038 95.2647 88.7429 95.0265 89.4164 94.421C90.0867 93.8184 90.3966 93.1472 90.346 92.4074C90.2986 91.6647 89.8888 90.8638 89.1164 90.0047C88.3554 89.1581 87.6083 88.6689 86.8752 88.537C86.1452 88.4023 85.445 88.6362 84.7747 89.2388C84.0981 89.8471 83.7833 90.5255 83.8304 91.2742C83.8806 92.02 84.2862 92.8162 85.0473 93.6627Z" fill="#0B0B0B"/>
<path d="M96.9456 76.2558C97.7881 76.7347 98.2769 77.3775 98.4121 78.1845C98.5474 78.9915 98.3254 79.9045 97.7462 80.9236L97.2695 81.7625L100.288 83.4781L99.5386 84.797L91.4703 80.2116L92.7907 77.8883C93.3636 76.8802 93.9983 76.2431 94.6947 75.9769C95.3932 75.707 96.1435 75.8 96.9456 76.2558ZM96.1602 81.132L96.5585 80.4312C96.9433 79.7542 97.1078 79.1906 97.0522 78.7404C96.9965 78.2902 96.7185 77.9229 96.2181 77.6385C95.7546 77.3751 95.3282 77.3202 94.9391 77.4738C94.55 77.6275 94.1851 78.0041 93.8442 78.6038L93.3236 79.5199L96.1602 81.132Z" fill="#0B0B0B"/>
<path d="M106.438 68.4715L106.094 69.9492L98.3225 68.1431L97.7046 70.8017L96.4371 70.5072L98.0162 63.7122L99.2837 64.0067L98.6659 66.6654L106.438 68.4715Z" fill="#0B0B0B"/>
<path d="M105.061 52.5561L105.049 52.4297C104.978 51.6713 104.72 51.0983 104.276 50.7106C103.827 50.3192 103.24 50.1574 102.516 50.2253C101.841 50.2884 101.325 50.5387 100.967 50.976C100.608 51.4092 100.461 51.9734 100.526 52.6686L100.555 52.9782L105.061 52.5561ZM107.818 53.7387L106.396 53.8719L106.415 54.0805C106.486 54.8347 106.411 55.5111 106.191 56.1098C105.966 56.7046 105.593 57.1901 105.071 57.5663C104.55 57.9424 103.952 58.162 103.278 58.2252C102.625 58.2864 102.023 58.1939 101.473 57.948C100.919 57.7024 100.468 57.3174 100.122 56.7931C99.7708 56.2692 99.5607 55.6364 99.4912 54.8949L99.4563 54.522L98.3187 54.6286L98.1849 53.2003L99.3225 53.0937L99.2863 52.7082C99.2165 51.9624 99.3034 51.3019 99.547 50.7265C99.7902 50.1469 100.16 49.6894 100.655 49.354C101.146 49.0147 101.725 48.8139 102.39 48.7515C103.077 48.6872 103.71 48.7916 104.288 49.0647C104.866 49.3378 105.318 49.7459 105.646 50.2891C105.972 50.828 106.171 51.4788 106.243 52.2414L106.262 52.4436L107.684 52.3104L107.818 53.7387ZM100.689 54.4066L100.718 54.7162C100.783 55.4157 101.035 55.9446 101.472 56.3032C101.905 56.6621 102.457 56.8102 103.127 56.7475C103.843 56.6804 104.388 56.4147 104.761 55.9505C105.129 55.4867 105.278 54.8692 105.205 54.0982L105.195 53.9844L100.689 54.4066Z" fill="#0B0B0B"/>
<path d="M97.1578 34.0813C98.5192 33.4263 99.7416 33.2584 100.825 33.5777C101.907 33.8933 102.747 34.6745 103.347 35.9215C103.955 37.1837 104.048 38.334 103.627 39.3724C103.201 40.4088 102.297 41.2591 100.917 41.9232C99.5362 42.5874 98.3128 42.758 97.2465 42.4352C96.1783 42.1085 95.3405 41.3141 94.7332 40.0519C94.1351 38.8087 94.0484 37.667 94.473 36.6268C94.8977 35.5866 95.7926 34.7381 97.1578 34.0813ZM100.229 40.4648C101.259 39.9695 101.94 39.3855 102.274 38.713C102.604 38.0423 102.573 37.2989 102.181 36.4829C101.79 35.6706 101.232 35.1852 100.508 35.0265C99.7815 34.8641 98.8979 35.0333 97.8568 35.5341C96.831 36.0277 96.1522 36.6079 95.8203 37.2747C95.4865 37.9378 95.515 38.6755 95.9058 39.4877C96.3003 40.3076 96.8635 40.7997 97.5953 40.9642C98.3254 41.1248 99.2033 40.9584 100.229 40.4648Z" fill="#0B0B0B"/>
<path d="M90.8817 19.1244L91.9619 20.1896L86.3594 25.8708L88.2396 27.725C90.3793 26.0313 91.8646 24.9078 92.6957 24.3544C93.5237 23.798 94.2024 23.5105 94.732 23.4919C95.2585 23.4762 95.7313 23.6839 96.1502 24.1149C96.3702 24.3318 96.5424 24.576 96.667 24.8474L95.7801 25.7468C95.6826 25.5021 95.5525 25.2995 95.3898 25.1391C95.1729 24.9251 94.8764 24.8883 94.5003 25.0286C94.1182 25.1689 93.4151 25.6137 92.391 26.3629C91.3638 27.1092 89.9752 28.1677 88.2253 29.5385L84.3655 25.7321L90.8817 19.1244Z" fill="#0B0B0B"/>
<path d="M82.8644 13.3422L78.3166 21.4317L76.9941 20.6883L81.542 12.5987L82.8644 13.3422Z" fill="#0B0B0B"/>
<path d="M64.6853 11.4996C65.0367 10.0303 65.6783 8.97636 66.6099 8.33768C67.5374 7.69801 68.6741 7.53914 70.0199 7.86106C71.3822 8.18691 72.3331 8.8408 72.8728 9.8227C73.4073 10.8077 73.4964 12.0452 73.14 13.5351C72.7836 15.0249 72.1436 16.0815 71.2201 16.7047C70.2924 17.3269 69.1474 17.4751 67.7851 17.1492C66.4434 16.8283 65.5032 16.1748 64.9646 15.1888C64.4259 14.2028 64.3328 12.973 64.6853 11.4996ZM71.5749 13.1476C71.8407 12.0364 71.8182 11.139 71.5074 10.4555C71.1957 9.77616 70.5994 9.33113 69.7186 9.12045C68.842 8.91076 68.1135 9.03673 67.5332 9.49837C66.9487 9.95903 66.5221 10.7511 66.2533 11.8747C65.9885 12.9818 66.0099 13.8746 66.3176 14.553C66.6211 15.2304 67.2112 15.674 68.0878 15.8837C68.9727 16.0953 69.7099 15.9693 70.2995 15.5055C70.8849 15.0407 71.3101 14.2548 71.5749 13.1476Z" fill="#0B0B0B"/>
</svg>
