<svg width="36" height="37" viewBox="0 0 36 37" fill="none" xmlns="http://www.w3.org/2000/svg">
<path d="M18 6.92462C10.5 6.92462 4.095 11.5896 1.5 18.1746C4.095 24.7596 10.5 29.4246 18 29.4246C25.5 29.4246 31.905 24.7596 34.5 18.1746C31.905 11.5896 25.5 6.92462 18 6.92462ZM18 25.6746C13.86 25.6746 10.5 22.3146 10.5 18.1746C10.5 14.0346 13.86 10.6746 18 10.6746C22.14 10.6746 25.5 14.0346 25.5 18.1746C25.5 22.3146 22.14 25.6746 18 25.6746ZM18 13.6746C15.51 13.6746 13.5 15.6846 13.5 18.1746C13.5 20.6646 15.51 22.6746 18 22.6746C20.49 22.6746 22.5 20.6646 22.5 18.1746C22.5 15.6846 20.49 13.6746 18 13.6746Z" fill="#0B0B0B"/>
</svg>
