<svg width="1600" height="1485" viewBox="0 0 1600 1485" fill="none" xmlns="http://www.w3.org/2000/svg">
<path d="M660.303 191.148L656.609 1511.02L485.999 1412.28L489.693 92.7451L660.303 191.148Z" fill="url(#paint0_linear)"/>
<path d="M81.3049 330.189L77.6106 1649.73L-4 1602.71L-0.3057 282.835L81.3049 330.189Z" fill="url(#paint1_linear)"/>
<path d="M489.694 92.7451L485.999 1412.28L77.6108 1649.73L81.3051 330.188L489.694 92.7451Z" fill="url(#paint2_linear)"/>
<path d="M489.694 92.7451L485.999 1412.28L77.6108 1649.73L81.3051 330.188L489.694 92.7451Z" fill="url(#paint3_linear)" fill-opacity="0.9"/>
<path d="M489.694 92.7451L485.999 1412.28L77.6108 1649.73L81.3051 330.188L489.694 92.7451Z" fill="url(#paint4_linear)" fill-opacity="0.1"/>
<path d="M915.881 338.921L912.187 1658.46L744.6 1561.74L748.294 242.197L915.881 338.921Z" fill="url(#paint5_linear)"/>
<path d="M339.907 479.64L336.212 1799.18L248.221 1748.13L251.915 428.592L339.907 479.64Z" fill="url(#paint6_linear)"/>
<path d="M748.295 242.197L744.601 1561.74L336.212 1799.18L339.906 479.64L748.295 242.197Z" fill="url(#paint7_linear)"/>
<path d="M748.295 242.197L744.601 1561.74L336.212 1799.18L339.906 479.64L748.295 242.197Z" fill="url(#paint8_linear)" fill-opacity="0.9"/>
<path d="M748.295 242.197L744.601 1561.74L336.212 1799.18L339.906 479.64L748.295 242.197Z" fill="url(#paint9_linear)" fill-opacity="0.1"/>
<path d="M1077.76 342.278L1074.07 1661.82L667.356 1900.27L671.05 580.729L1077.76 342.278Z" fill="#161616"/>
<path d="M1437.79 643.868L1434.09 1963.41L1255.42 1860.3L1259.45 540.764L1437.79 643.868Z" fill="url(#paint10_linear)"/>
<path d="M1423.34 746.638L1419.65 2066.18L1338.04 2019.16L1341.73 699.619L1423.34 746.638Z" fill="url(#paint11_linear)"/>
<path d="M1600 643.868L1596.31 1963.41L1419.65 2066.18L1423.34 746.637L1600 643.868Z" fill="#111111"/>
<path d="M510.18 577.706L506.15 1897.24L850.392 2095.73L854.086 776.191L510.18 577.706Z" fill="url(#paint12_linear)"/>
<path d="M1259.45 540.764L1255.42 1860.3L850.392 2095.73L854.086 776.192L1259.45 540.764Z" fill="url(#paint13_linear)"/>
<path d="M1259.45 540.764L1255.42 1860.3L850.392 2095.73L854.086 776.192L1259.45 540.764Z" fill="url(#paint14_linear)" fill-opacity="0.9"/>
<path d="M1600 643.868L1423.35 746.637L1341.73 699.619L1437.79 643.868L1259.45 540.764L854.087 776.192L510.18 577.707L915.882 338.92L748.295 242.197L339.907 479.64L251.915 428.591L660.304 191.148L489.694 92.7453L81.3053 330.188L-0.305298 282.834L485.664 0.387695L1077.76 342.279L671.051 580.729L841.996 679.468L1250.72 442.025L1600 643.868Z" fill="#353535"/>
<defs>
<linearGradient id="paint0_linear" x1="824.005" y1="1031.27" x2="330.983" y2="1031.27" gradientUnits="userSpaceOnUse">
<stop offset="0.567708" stop-color="#1B1A1A"/>
<stop offset="1"/>
</linearGradient>
<linearGradient id="paint1_linear" x1="38.6524" y1="282.835" x2="38.6524" y2="1649.73" gradientUnits="userSpaceOnUse">
<stop stop-color="#252525"/>
<stop offset="1" stop-color="#191919"/>
</linearGradient>
<linearGradient id="paint2_linear" x1="876.711" y1="1123.06" x2="-288.873" y2="1123.06" gradientUnits="userSpaceOnUse">
<stop/>
<stop offset="0.666667" stop-color="#191919"/>
</linearGradient>
<linearGradient id="paint3_linear" x1="-39.1789" y1="486.206" x2="1813.12" y2="2217.22" gradientUnits="userSpaceOnUse">
<stop stop-opacity="0"/>
<stop offset="0.379211"/>
</linearGradient>
<linearGradient id="paint4_linear" x1="77.6108" y1="92.7451" x2="1024.79" y2="1461.97" gradientUnits="userSpaceOnUse">
<stop stop-color="#939393"/>
<stop offset="0.479167" stop-opacity="0"/>
</linearGradient>
<linearGradient id="paint5_linear" x1="1076.74" y1="1179.39" x2="592.272" y2="1179.39" gradientUnits="userSpaceOnUse">
<stop offset="0.567708" stop-color="#1B1A1A"/>
<stop offset="1"/>
</linearGradient>
<linearGradient id="paint6_linear" x1="294.064" y1="428.592" x2="294.064" y2="1799.18" gradientUnits="userSpaceOnUse">
<stop stop-color="#252525"/>
<stop offset="1" stop-color="#191919"/>
</linearGradient>
<linearGradient id="paint7_linear" x1="1135.31" y1="1272.51" x2="-30.2713" y2="1272.51" gradientUnits="userSpaceOnUse">
<stop/>
<stop offset="0.666667" stop-color="#191919"/>
</linearGradient>
<linearGradient id="paint8_linear" x1="495.71" y1="122.123" x2="957.105" y2="1917.67" gradientUnits="userSpaceOnUse">
<stop stop-opacity="0"/>
<stop offset="1"/>
</linearGradient>
<linearGradient id="paint9_linear" x1="614.822" y1="400.268" x2="1248.94" y2="1020.69" gradientUnits="userSpaceOnUse">
<stop stop-color="#333333"/>
<stop offset="0.359375" stop-opacity="0"/>
</linearGradient>
<linearGradient id="paint10_linear" x1="1609.06" y1="1482.18" x2="1093.24" y2="1482.18" gradientUnits="userSpaceOnUse">
<stop offset="0.526042" stop-color="#191919"/>
<stop offset="1"/>
</linearGradient>
<linearGradient id="paint11_linear" x1="1380.69" y1="699.619" x2="1380.69" y2="2066.18" gradientUnits="userSpaceOnUse">
<stop stop-color="#252525"/>
<stop offset="1" stop-color="#191919"/>
</linearGradient>
<linearGradient id="paint12_linear" x1="680.118" y1="577.706" x2="680.118" y2="2095.73" gradientUnits="userSpaceOnUse">
<stop stop-color="#252525"/>
<stop offset="1" stop-color="#191919"/>
</linearGradient>
<linearGradient id="paint13_linear" x1="1643.63" y1="1569.74" x2="486.597" y2="1569.74" gradientUnits="userSpaceOnUse">
<stop/>
<stop offset="0.664667" stop-color="#191919"/>
</linearGradient>
<linearGradient id="paint14_linear" x1="638.211" y1="1395.95" x2="1054.92" y2="1405.37" gradientUnits="userSpaceOnUse">
<stop stop-color="#151515"/>
<stop offset="1" stop-opacity="0"/>
</linearGradient>
</defs>
</svg>
