<svg width="344" height="58" viewBox="0 0 344 58" fill="none" xmlns="http://www.w3.org/2000/svg">
<path d="M0 35V0.189998H7.08V35H0ZM8.85 35V0.189998H14.16V35H8.85ZM15.93 35V0.189998H17.7V35H15.93ZM5.074 43.791H6.549V44.794C6.785 44.44 7.08 44.145 7.434 43.909C7.788 43.673 8.16167 43.555 8.555 43.555C8.98767 43.555 9.381 43.6927 9.735 43.968C10.0497 44.2433 10.2463 44.5973 10.325 45.03C10.5217 44.5973 10.8363 44.2433 11.269 43.968C11.6623 43.6927 12.1147 43.555 12.626 43.555C13.2553 43.555 13.747 43.791 14.101 44.263C14.4157 44.735 14.5533 45.3643 14.514 46.151V53.821H13.098V46.741C13.098 45.8757 13.0193 45.325 12.862 45.089C12.7047 44.853 12.4687 44.735 12.154 44.735C11.8787 44.735 11.623 44.853 11.387 45.089C11.151 45.325 10.9543 45.6397 10.797 46.033C10.6397 46.4263 10.561 46.8197 10.561 47.213V53.821H9.086V46.859C9.086 46.033 9.00733 45.4823 8.85 45.207C8.69267 44.8923 8.39767 44.735 7.965 44.735C7.76833 44.735 7.552 44.8333 7.316 45.03C7.08 45.2267 6.88333 45.5217 6.726 45.915C6.608 46.269 6.549 46.682 6.549 47.154V53.821H5.074V43.791ZM20.3596 35V0.189998H22.1296V35H20.3596ZM25.6696 35V0.189998H32.7496V35H25.6696ZM36.2896 35V0.189998H38.0596V35H36.2896ZM29.4456 54.057C28.3836 54.057 27.5379 53.6637 26.9086 52.877C26.2793 52.0903 25.9843 50.93 26.0236 49.396V43.791H27.5576V49.396C27.5576 50.576 27.7739 51.4413 28.2066 51.992C28.5999 52.5427 29.1506 52.818 29.8586 52.818C30.6059 52.818 31.2353 52.5033 31.7466 51.874C32.2973 51.284 32.5726 50.4383 32.5726 49.337V43.791H34.1066V52.287C34.1066 52.641 34.1066 52.9163 34.1066 53.113C34.1459 53.349 34.2049 53.585 34.2836 53.821H32.8086C32.6906 53.585 32.6316 53.349 32.6316 53.113C32.5923 52.9163 32.5726 52.641 32.5726 52.287C32.2579 52.8377 31.8253 53.2703 31.2746 53.585C30.7239 53.8997 30.1143 54.057 29.4456 54.057ZM40.7192 35V0.189998H42.4892V35H40.7192ZM46.0292 35V0.189998H47.7992V35H46.0292ZM51.3392 35V0.189998H58.4192V35H51.3392ZM52.3422 43.555C53.4042 43.555 54.2892 43.9287 54.9972 44.676L54.2892 45.856L54.2302 46.092L54.0532 45.974C54.0139 45.8167 53.9746 45.6987 53.9352 45.62C53.8566 45.502 53.7189 45.384 53.5222 45.266C53.1682 45.03 52.7356 44.912 52.2242 44.912C51.7129 44.912 51.2212 45.0497 50.7492 45.325C50.2772 45.561 49.9036 45.9543 49.6282 46.505C49.3136 47.0557 49.1562 47.7243 49.1562 48.511V53.821H47.5632V43.791H49.2152L49.1562 45.62C49.4316 44.9907 49.8642 44.4793 50.4542 44.086C51.0442 43.732 51.6736 43.555 52.3422 43.555ZM61.0788 35V0.189998H64.6188V35H61.0788ZM66.3888 35V0.189998H69.9288V35H66.3888ZM73.4688 35V0.189998H77.0088V35H73.4688ZM81.4384 35V0.189998H83.2084V35H81.4384ZM90.2884 35V0.189998H92.0584V35H90.2884ZM95.5984 35V0.189998H99.1384V35H95.5984ZM90.8194 54.057C90.1114 54.057 89.4428 53.8407 88.8134 53.408C88.1841 53.0147 87.6728 52.4247 87.2794 51.638C86.8861 50.812 86.6894 49.8287 86.6894 48.688C86.6894 47.5473 86.8861 46.5837 87.2794 45.797C87.7121 45.0497 88.2431 44.4793 88.8724 44.086C89.5018 43.732 90.1704 43.555 90.8784 43.555C91.5864 43.555 92.1764 43.6927 92.6484 43.968C93.1598 44.2827 93.5531 44.7153 93.8284 45.266V39.248H95.4804V39.366C95.4018 39.484 95.3428 39.5823 95.3034 39.661C95.3034 39.779 95.3034 39.956 95.3034 40.192V52.287C95.3034 52.641 95.3231 52.9163 95.3624 53.113C95.3624 53.349 95.4214 53.585 95.5394 53.821H94.0054C93.8874 53.585 93.8088 53.349 93.7694 53.113C93.7694 52.9163 93.7694 52.641 93.7694 52.287C93.4548 52.8377 93.0418 53.2703 92.5304 53.585C92.0191 53.8997 91.4488 54.057 90.8194 54.057ZM91.0554 52.641C91.9601 52.641 92.6288 52.287 93.0614 51.579C93.4941 50.871 93.7104 49.927 93.7104 48.747C93.7104 47.567 93.4744 46.623 93.0024 45.915C92.5304 45.207 91.8421 44.853 90.9374 44.853C90.0721 44.853 89.4034 45.1677 88.9314 45.797C88.4594 46.4657 88.2234 47.3507 88.2234 48.452C88.2234 49.75 88.4594 50.7727 88.9314 51.52C89.4428 52.2673 90.1508 52.641 91.0554 52.641ZM101.798 35V0.189998H103.568V35H101.798ZM105.338 35V0.189998H108.878V35H105.338ZM112.418 35V0.189998H114.188V35H112.418ZM112.005 54.057C110.51 54.057 109.33 53.6047 108.465 52.7C107.56 51.7953 107.108 50.517 107.108 48.865C107.108 47.7637 107.324 46.8 107.757 45.974C108.15 45.1873 108.701 44.5973 109.409 44.204C110.078 43.7713 110.845 43.555 111.71 43.555C112.929 43.555 113.913 43.9483 114.66 44.735C115.407 45.561 115.781 46.7607 115.781 48.334C115.781 48.4913 115.781 48.7273 115.781 49.042H108.642C108.681 50.2613 109.016 51.1857 109.645 51.815C110.274 52.4443 111.081 52.759 112.064 52.759C113.126 52.759 113.991 52.3853 114.66 51.638L115.545 52.523C114.68 53.5457 113.5 54.057 112.005 54.057ZM114.188 47.803C114.188 46.859 113.952 46.1117 113.48 45.561C113.008 45.0103 112.379 44.735 111.592 44.735C110.884 44.735 110.255 44.9907 109.704 45.502C109.153 46.0133 108.819 46.7803 108.701 47.803H114.188ZM122.158 35V0.189998H123.928V35H122.158ZM125.698 35V0.189998H132.778V35H125.698ZM136.318 35V0.189998H138.088V35H136.318ZM131.893 54.057C130.201 54.057 128.785 53.526 127.645 52.464L128.53 50.989L128.648 50.753L128.825 50.871C128.825 50.9103 128.825 50.9693 128.825 51.048C128.864 51.166 128.903 51.2643 128.943 51.343C129.021 51.461 129.1 51.579 129.179 51.697C129.533 52.0117 129.926 52.2673 130.359 52.464C130.791 52.6213 131.322 52.7 131.952 52.7C132.738 52.7 133.368 52.5623 133.84 52.287C134.272 52.0117 134.489 51.6183 134.489 51.107C134.489 50.6743 134.312 50.3203 133.958 50.045C133.604 49.7697 132.935 49.4943 131.952 49.219C129.434 48.4717 128.176 47.4293 128.176 46.092C128.176 45.3053 128.51 44.6957 129.179 44.263C129.808 43.791 130.713 43.555 131.893 43.555C132.797 43.555 133.564 43.6927 134.194 43.968C134.823 44.204 135.393 44.5973 135.905 45.148L134.961 46.21L134.843 46.387L134.725 46.269C134.725 46.1117 134.685 45.9937 134.607 45.915C134.567 45.797 134.469 45.679 134.312 45.561C133.958 45.2857 133.584 45.089 133.191 44.971C132.758 44.8137 132.345 44.735 131.952 44.735C131.322 44.735 130.791 44.853 130.359 45.089C129.965 45.2857 129.769 45.5807 129.769 45.974C129.769 46.3673 129.985 46.7017 130.418 46.977C130.811 47.2917 131.539 47.6063 132.601 47.921C133.859 48.3143 134.744 48.7273 135.256 49.16C135.806 49.5927 136.082 50.1827 136.082 50.93C136.082 51.8347 135.728 52.582 135.02 53.172C134.312 53.762 133.269 54.057 131.893 54.057ZM142.517 35V0.189998H144.287V35H142.517ZM151.367 35V0.189998H154.907V35H151.367ZM156.677 35V0.189998H158.447V35H156.677ZM148.948 52.523H151.544V45.089H149.066V43.791H153.078V52.523H155.438V53.821H148.948V52.523ZM152.252 41.667C151.938 41.667 151.662 41.5687 151.426 41.372C151.23 41.136 151.131 40.8607 151.131 40.546C151.131 40.2313 151.23 39.9757 151.426 39.779C151.623 39.543 151.898 39.425 152.252 39.425C152.528 39.425 152.783 39.543 153.019 39.779C153.255 40.015 153.373 40.2707 153.373 40.546C153.373 40.8607 153.255 41.136 153.019 41.372C152.783 41.5687 152.528 41.667 152.252 41.667ZM162.877 35V0.189998H164.647V35H162.877ZM168.187 35V0.189998H171.727V35H168.187ZM173.497 35V0.189998H175.267V35H173.497ZM177.568 44.853C177.411 44.8137 177.214 44.794 176.978 44.794C176.27 44.794 175.68 44.9513 175.208 45.266C175.483 45.7773 175.621 46.328 175.621 46.918C175.621 47.5867 175.464 48.1767 175.149 48.688C174.874 49.2387 174.461 49.6713 173.91 49.986C173.399 50.2613 172.789 50.399 172.081 50.399C171.53 50.399 171.019 50.3007 170.547 50.104C170.272 50.4187 170.134 50.7333 170.134 51.048C170.134 51.402 170.35 51.6577 170.783 51.815C171.255 51.9723 172.061 52.051 173.202 52.051C174.618 52.051 175.582 52.2477 176.093 52.641C176.604 53.0737 176.86 53.7227 176.86 54.588C176.86 55.4533 176.526 56.1613 175.857 56.712C175.149 57.302 174.048 57.597 172.553 57.597C171.098 57.597 169.977 57.3807 169.19 56.948C168.364 56.5153 167.951 55.8663 167.951 55.001C167.951 54.4897 168.108 54.0373 168.423 53.644C168.698 53.2507 169.072 52.9557 169.544 52.759C169.033 52.4443 168.777 51.992 168.777 51.402C168.777 50.812 169.072 50.2023 169.662 49.573C169.308 49.2583 169.033 48.865 168.836 48.393C168.679 47.9603 168.6 47.4687 168.6 46.918C168.6 46.2887 168.738 45.6987 169.013 45.148C169.288 44.5973 169.701 44.1843 170.252 43.909C170.763 43.5943 171.373 43.437 172.081 43.437C173.143 43.437 174.008 43.7713 174.677 44.44C174.992 44.1253 175.346 43.8893 175.739 43.732C176.093 43.5747 176.506 43.496 176.978 43.496L177.332 43.555L177.568 44.853ZM172.081 49.101C172.71 49.101 173.241 48.8847 173.674 48.452C174.067 48.0587 174.264 47.5473 174.264 46.918C174.264 46.2887 174.067 45.7577 173.674 45.325C173.241 44.9317 172.71 44.735 172.081 44.735C171.452 44.735 170.921 44.9317 170.488 45.325C170.095 45.7577 169.898 46.2887 169.898 46.918C169.898 47.5473 170.095 48.0587 170.488 48.452C170.921 48.8847 171.452 49.101 172.081 49.101ZM175.444 54.824C175.444 54.47 175.385 54.1947 175.267 53.998C175.149 53.8013 174.893 53.644 174.5 53.526C174.146 53.4473 173.595 53.408 172.848 53.408C171.825 53.408 170.999 53.3097 170.37 53.113C170.016 53.349 169.76 53.585 169.603 53.821C169.485 54.0963 169.426 54.4307 169.426 54.824C169.426 55.3353 169.701 55.7287 170.252 56.004C170.803 56.2793 171.57 56.417 172.553 56.417C173.536 56.417 174.264 56.2793 174.736 56.004C175.208 55.6893 175.444 55.296 175.444 54.824ZM183.236 35V0.189998H186.776V35H183.236ZM193.856 35V0.189998H195.626V35H193.856ZM197.396 35V0.189998H199.166V35H197.396ZM189.077 43.791H190.611V45.561C191.005 44.971 191.496 44.4793 192.086 44.086C192.676 43.732 193.306 43.555 193.974 43.555C194.879 43.555 195.607 43.8893 196.157 44.558C196.669 45.266 196.924 46.328 196.924 47.744V53.821H195.39V47.803C195.39 46.7803 195.233 46.0527 194.918 45.62C194.564 45.148 194.112 44.912 193.561 44.912C193.089 44.912 192.637 45.0497 192.204 45.325C191.732 45.6003 191.339 45.974 191.024 46.446C190.749 46.918 190.611 47.449 190.611 48.039V53.821H189.077V43.791ZM203.596 35V0.189998H207.136V35H203.596ZM208.906 35V0.189998H212.446V35H208.906ZM215.986 35V0.189998H219.526V35H215.986ZM223.956 35V0.189998H225.726V35H223.956ZM227.496 35V0.189998H234.576V35H227.496ZM238.116 35V0.189998H239.886V35H238.116ZM233.691 54.057C231.999 54.057 230.583 53.526 229.443 52.464L230.328 50.989L230.446 50.753L230.623 50.871C230.623 50.9103 230.623 50.9693 230.623 51.048C230.662 51.166 230.701 51.2643 230.741 51.343C230.819 51.461 230.898 51.579 230.977 51.697C231.331 52.0117 231.724 52.2673 232.157 52.464C232.589 52.6213 233.12 52.7 233.75 52.7C234.536 52.7 235.166 52.5623 235.638 52.287C236.07 52.0117 236.287 51.6183 236.287 51.107C236.287 50.6743 236.11 50.3203 235.756 50.045C235.402 49.7697 234.733 49.4943 233.75 49.219C231.232 48.4717 229.974 47.4293 229.974 46.092C229.974 45.3053 230.308 44.6957 230.977 44.263C231.606 43.791 232.511 43.555 233.691 43.555C234.595 43.555 235.362 43.6927 235.992 43.968C236.621 44.204 237.191 44.5973 237.703 45.148L236.759 46.21L236.641 46.387L236.523 46.269C236.523 46.1117 236.483 45.9937 236.405 45.915C236.365 45.797 236.267 45.679 236.11 45.561C235.756 45.2857 235.382 45.089 234.989 44.971C234.556 44.8137 234.143 44.735 233.75 44.735C233.12 44.735 232.589 44.853 232.157 45.089C231.763 45.2857 231.567 45.5807 231.567 45.974C231.567 46.3673 231.783 46.7017 232.216 46.977C232.609 47.2917 233.337 47.6063 234.399 47.921C235.657 48.3143 236.542 48.7273 237.054 49.16C237.604 49.5927 237.88 50.1827 237.88 50.93C237.88 51.8347 237.526 52.582 236.818 53.172C236.11 53.762 235.067 54.057 233.691 54.057ZM244.315 35V0.189998H246.085V35H244.315ZM249.625 35V0.189998H256.705V35H249.625ZM258.475 35V0.189998H260.245V35H258.475ZM258.298 52.877C257.354 53.6243 256.292 53.998 255.112 53.998C254.011 53.998 253.224 53.6637 252.752 52.995C252.28 52.287 252.044 51.1857 252.044 49.691C252.044 49.4157 252.064 48.983 252.103 48.393L252.339 45.089H250.097V43.791H252.398L252.575 41.136L254.286 40.841H254.522V40.959C254.444 41.077 254.385 41.195 254.345 41.313C254.267 41.431 254.227 41.5883 254.227 41.785L253.991 43.791H257.295V45.089H253.873L253.696 48.511C253.657 49.101 253.637 49.4747 253.637 49.632C253.637 50.812 253.775 51.6183 254.05 52.051C254.326 52.4443 254.758 52.641 255.348 52.641C255.781 52.641 256.194 52.5623 256.587 52.405C256.941 52.2477 257.354 51.992 257.826 51.638L258.298 52.877ZM264.675 35V0.189998H266.445V35H264.675ZM269.985 35V0.189998H277.065V35H269.985ZM280.605 35V0.189998H282.375V35H280.605ZM273.761 54.057C272.699 54.057 271.853 53.6637 271.224 52.877C270.595 52.0903 270.3 50.93 270.339 49.396V43.791H271.873V49.396C271.873 50.576 272.089 51.4413 272.522 51.992C272.915 52.5427 273.466 52.818 274.174 52.818C274.921 52.818 275.551 52.5033 276.062 51.874C276.613 51.284 276.888 50.4383 276.888 49.337V43.791H278.422V52.287C278.422 52.641 278.422 52.9163 278.422 53.113C278.461 53.349 278.52 53.585 278.599 53.821H277.124C277.006 53.585 276.947 53.349 276.947 53.113C276.908 52.9163 276.888 52.641 276.888 52.287C276.573 52.8377 276.141 53.2703 275.59 53.585C275.039 53.8997 274.43 54.057 273.761 54.057ZM285.035 35V0.189998H286.805V35H285.035ZM293.885 35V0.189998H295.655V35H293.885ZM299.195 35V0.189998H302.735V35H299.195ZM294.416 54.057C293.708 54.057 293.039 53.8407 292.41 53.408C291.78 53.0147 291.269 52.4247 290.876 51.638C290.482 50.812 290.286 49.8287 290.286 48.688C290.286 47.5473 290.482 46.5837 290.876 45.797C291.308 45.0497 291.839 44.4793 292.469 44.086C293.098 43.732 293.767 43.555 294.475 43.555C295.183 43.555 295.773 43.6927 296.245 43.968C296.756 44.2827 297.149 44.7153 297.425 45.266V39.248H299.077V39.366C298.998 39.484 298.939 39.5823 298.9 39.661C298.9 39.779 298.9 39.956 298.9 40.192V52.287C298.9 52.641 298.919 52.9163 298.959 53.113C298.959 53.349 299.018 53.585 299.136 53.821H297.602C297.484 53.585 297.405 53.349 297.366 53.113C297.366 52.9163 297.366 52.641 297.366 52.287C297.051 52.8377 296.638 53.2703 296.127 53.585C295.615 53.8997 295.045 54.057 294.416 54.057ZM294.652 52.641C295.556 52.641 296.225 52.287 296.658 51.579C297.09 50.871 297.307 49.927 297.307 48.747C297.307 47.567 297.071 46.623 296.599 45.915C296.127 45.207 295.438 44.853 294.534 44.853C293.668 44.853 293 45.1677 292.528 45.797C292.056 46.4657 291.82 47.3507 291.82 48.452C291.82 49.75 292.056 50.7727 292.528 51.52C293.039 52.2673 293.747 52.641 294.652 52.641ZM305.394 35V0.189998H307.164V35H305.394ZM314.244 35V0.189998H317.784V35H314.244ZM319.554 35V0.189998H321.324V35H319.554ZM311.825 52.523H314.421V45.089H311.943V43.791H315.955V52.523H318.315V53.821H311.825V52.523ZM315.129 41.667C314.814 41.667 314.539 41.5687 314.303 41.372C314.106 41.136 314.008 40.8607 314.008 40.546C314.008 40.2313 314.106 39.9757 314.303 39.779C314.5 39.543 314.775 39.425 315.129 39.425C315.404 39.425 315.66 39.543 315.896 39.779C316.132 40.015 316.25 40.2707 316.25 40.546C316.25 40.8607 316.132 41.136 315.896 41.372C315.66 41.5687 315.404 41.667 315.129 41.667ZM325.754 35V0.189998H327.524V35H325.754ZM332.834 35V0.189998H339.914V35H332.834ZM341.684 35V0.189998H343.454V35H341.684ZM335.489 53.998C334.584 53.998 333.778 53.7817 333.07 53.349C332.401 52.9163 331.87 52.3067 331.477 51.52C331.044 50.7333 330.828 49.8287 330.828 48.806C330.828 47.7833 331.044 46.8787 331.477 46.092C331.87 45.3053 332.401 44.6957 333.07 44.263C333.778 43.791 334.584 43.555 335.489 43.555C336.393 43.555 337.18 43.791 337.849 44.263C338.557 44.6957 339.107 45.3053 339.501 46.092C339.894 46.8787 340.091 47.7833 340.091 48.806C340.091 49.8287 339.894 50.7333 339.501 51.52C339.107 52.3067 338.557 52.9163 337.849 53.349C337.18 53.7817 336.393 53.998 335.489 53.998ZM335.489 52.7C336.039 52.7 336.551 52.523 337.023 52.169C337.455 51.8543 337.809 51.402 338.085 50.812C338.321 50.1827 338.439 49.4943 338.439 48.747C338.439 47.6063 338.163 46.682 337.613 45.974C337.062 45.266 336.354 44.912 335.489 44.912C334.623 44.912 333.915 45.266 333.365 45.974C332.814 46.682 332.539 47.6063 332.539 48.747C332.539 49.4943 332.657 50.1827 332.893 50.812C333.168 51.402 333.522 51.8543 333.955 52.169C334.387 52.523 334.899 52.7 335.489 52.7Z" fill="white"/>
</svg>
