<svg width="661" height="228" viewBox="0 0 661 228" fill="none" xmlns="http://www.w3.org/2000/svg">
<rect x="17.4054" y="1.09905" width="645" height="156" rx="9" transform="rotate(6 17.4054 1.09905)" fill="white"/>
<path d="M82.7159 53.2113L84.162 62.4129L87.1913 53.6817L91.0699 54.0894L85.8273 67.6155L82.0482 67.2183L80.5707 58.3151L77.2744 66.7165L73.4953 66.3193L71.1795 51.9988L75.0581 52.4065L76.2059 61.5767L79.5335 52.8768L82.7159 53.2113ZM95.6549 60.3027C95.1245 60.2469 94.8315 60.4843 94.7757 61.0147L94.6607 62.1086L98.0421 62.464L98.1571 61.3701C98.2128 60.8397 97.9755 60.5466 97.4451 60.4908L95.6549 60.3027ZM91.3053 60.5494C91.4099 59.5549 91.7699 58.8084 92.3853 58.31C93.0154 57.7997 93.8278 57.5969 94.8223 57.7014L98.8004 58.1195C99.7949 58.224 100.541 58.5907 101.038 59.2194C101.549 59.8363 101.753 60.6419 101.648 61.6365L101.262 65.3162L94.3994 64.595L94.3158 65.3906C94.2949 65.5895 94.3438 65.7622 94.4624 65.9087C94.5811 66.0553 94.7399 66.139 94.9388 66.1599C95.509 66.2198 96.127 66.2714 96.7928 66.3145C97.4718 66.3591 98.1052 66.3922 98.6928 66.4137C99.3747 66.4317 100.057 66.4498 100.738 66.4678L100.477 68.9541C99.6996 68.9528 98.9036 68.9362 98.0892 68.9042C97.3941 68.8848 96.64 68.8525 95.8269 68.8072C95.0139 68.762 94.2294 68.6997 93.4736 68.6202C92.5719 68.5255 91.8778 68.1777 91.3912 67.5768C90.9047 66.976 90.7088 66.2248 90.8036 65.3231L91.3053 60.5494ZM113.645 67.9249C113.897 67.9514 114.164 67.9594 114.447 67.9489C114.73 67.9384 114.993 67.9191 115.237 67.8912C115.521 67.8674 115.8 67.8297 116.074 67.778L116.199 66.5845L113.315 66.2814C113.116 66.2605 112.943 66.3094 112.797 66.4281C112.65 66.5467 112.567 66.7055 112.546 66.9044L112.525 67.1033C112.504 67.3022 112.553 67.4749 112.671 67.6215C112.79 67.768 112.949 67.8517 113.148 67.8726L113.645 67.9249ZM111.662 70.5319C110.76 70.4371 110.066 70.0893 109.579 69.4885C109.093 68.8877 108.897 68.1364 108.992 67.2347L109.086 66.3397C109.181 65.438 109.528 64.7438 110.129 64.2573C110.73 63.7708 111.481 63.5749 112.383 63.6697L116.46 64.0982L116.544 63.3026C116.565 63.1037 116.516 62.931 116.397 62.7845C116.279 62.6379 116.12 62.5542 115.921 62.5333C115.391 62.4775 114.812 62.4368 114.184 62.4111C113.572 62.3735 112.991 62.346 112.443 62.3287C111.801 62.3148 111.16 62.2943 110.519 62.2672L110.781 59.7809C111.518 59.778 112.268 59.7897 113.029 59.8161C113.685 59.8314 114.399 59.8595 115.172 59.9006C115.945 59.9416 116.683 59.9991 117.386 60.073C118.288 60.1677 118.982 60.5155 119.469 61.1163C119.955 61.7172 120.151 62.4684 120.056 63.3701L119.241 71.1274L116.158 70.8033L116.064 69.7879C115.695 69.9771 115.303 70.137 114.887 70.2676C114.527 70.3772 114.128 70.4694 113.692 70.5441C113.253 70.6321 112.809 70.6524 112.358 70.605L111.662 70.5319ZM125.515 61.1284L125.578 62.4422C125.911 62.2091 126.275 61.9993 126.67 61.8129C127.008 61.6607 127.397 61.5273 127.838 61.4128C128.292 61.2997 128.785 61.271 129.315 61.3267L130.21 61.4208L129.886 64.5038L128.195 64.3261C127.851 64.2899 127.516 64.2882 127.19 64.3211C126.879 64.3553 126.6 64.393 126.354 64.4342C126.066 64.4978 125.797 64.5701 125.547 64.6511L124.805 71.7122L121.324 71.3463L122.432 60.8044L125.515 61.1284ZM135.328 64.4725C134.797 64.4167 134.504 64.654 134.449 65.1845L134.334 66.2784L137.715 66.6338L137.83 65.5399C137.886 65.0094 137.648 64.7164 137.118 64.6606L135.328 64.4725ZM130.978 64.7192C131.083 63.7246 131.443 62.9782 132.058 62.4798C132.688 61.9695 133.501 61.7667 134.495 61.8712L138.473 62.2893C139.468 62.3938 140.214 62.7605 140.711 63.3892C141.222 64.006 141.426 64.8117 141.321 65.8063L140.934 69.486L134.072 68.7647L133.989 69.5604C133.968 69.7593 134.017 69.932 134.135 70.0785C134.254 70.2251 134.413 70.3088 134.612 70.3297C135.182 70.3896 135.8 70.4412 136.466 70.4843C137.145 70.5289 137.778 70.5619 138.366 70.5835C139.048 70.6015 139.729 70.6196 140.411 70.6376L140.15 73.1239C139.372 73.1226 138.577 73.106 137.762 73.074C137.067 73.0546 136.313 73.0223 135.5 72.977C134.687 72.9318 133.902 72.8695 133.146 72.79C132.245 72.6952 131.551 72.3475 131.064 71.7466C130.578 71.1458 130.382 70.3946 130.476 69.4929L130.978 64.7192ZM153.318 72.0947C153.57 72.1212 153.837 72.1292 154.12 72.1187C154.402 72.1081 154.666 72.0889 154.91 72.0609C155.194 72.0372 155.473 71.9994 155.747 71.9478L155.872 70.7543L152.988 70.4512C152.789 70.4303 152.616 70.4792 152.47 70.5978C152.323 70.7165 152.239 70.8753 152.219 71.0742L152.198 71.2731C152.177 71.472 152.226 71.6447 152.344 71.7913C152.463 71.9378 152.622 72.0215 152.821 72.0424L153.318 72.0947ZM151.335 74.7017C150.433 74.6069 149.739 74.2591 149.252 73.6583C148.766 73.0575 148.57 72.3062 148.665 71.4045L148.759 70.5094C148.853 69.6077 149.201 68.9136 149.802 68.4271C150.403 67.9406 151.154 67.7447 152.056 67.8395L156.133 68.268L156.217 67.4724C156.238 67.2735 156.189 67.1008 156.07 66.9542C155.952 66.8077 155.793 66.724 155.594 66.7031C155.064 66.6473 154.485 66.6066 153.857 66.5809C153.244 66.5433 152.664 66.5158 152.116 66.4984C151.474 66.4846 150.833 66.4641 150.192 66.437L150.454 63.9507C151.191 63.9478 151.941 63.9595 152.702 63.9859C153.357 64.0012 154.072 64.0293 154.845 64.0704C155.618 64.1114 156.356 64.1689 157.059 64.2428C157.961 64.3375 158.655 64.6853 159.142 65.2861C159.628 65.8869 159.824 66.6382 159.729 67.5399L158.914 75.2972L155.831 74.9731L155.736 73.9577C155.368 74.1469 154.976 74.3068 154.56 74.4373C154.2 74.547 153.801 74.6392 153.364 74.7139C152.926 74.8019 152.482 74.8222 152.031 74.7748L151.335 74.7017ZM174.717 76.9582L174.623 75.9428C174.255 76.132 173.862 76.2918 173.446 76.4224C173.086 76.532 172.688 76.6242 172.251 76.699C171.813 76.787 171.368 76.8073 170.917 76.7599L170.022 76.6658C169.121 76.571 168.426 76.2233 167.94 75.6224C167.453 75.0216 167.257 74.2704 167.352 73.3687L167.833 68.7939C167.938 67.7993 168.298 67.0529 168.913 66.5545C169.543 66.0442 170.356 65.8414 171.35 65.9459L175.428 66.3745L175.783 62.9931L179.264 63.3589L177.8 77.2822L174.717 76.9582ZM175.145 69.0597L172.162 68.7461C171.631 68.6903 171.338 68.9277 171.283 69.4581L170.896 73.1378C170.875 73.3367 170.924 73.5094 171.042 73.656C171.161 73.8025 171.32 73.8862 171.519 73.9071L172.215 73.9803C172.467 74.0068 172.734 74.0148 173.017 74.0043C173.299 73.9937 173.563 73.9745 173.807 73.9466C174.091 73.9228 174.37 73.8851 174.644 73.8334L175.145 69.0597ZM185.031 69.6964C184.5 69.6407 184.207 69.878 184.151 70.4084L184.036 71.5024L187.418 71.8578L187.533 70.7638C187.588 70.2334 187.351 69.9403 186.821 69.8846L185.031 69.6964ZM180.681 69.9431C180.786 68.9486 181.146 68.2022 181.761 67.7038C182.391 67.1935 183.203 66.9906 184.198 67.0952L188.176 67.5133C189.171 67.6178 189.916 67.9844 190.413 68.6132C190.925 69.23 191.129 70.0357 191.024 71.0302L190.637 74.71L183.775 73.9887L183.691 74.7843C183.671 74.9832 183.719 75.156 183.838 75.3025C183.957 75.449 184.116 75.5328 184.314 75.5537C184.885 75.6136 185.503 75.6651 186.168 75.7083C186.847 75.7529 187.481 75.7859 188.068 75.8075C188.75 75.8255 189.432 75.8435 190.114 75.8616L189.853 78.3479C189.075 78.3466 188.279 78.33 187.465 78.298C186.77 78.2786 186.016 78.2462 185.203 78.201C184.39 78.1558 183.605 78.0934 182.849 78.014C181.948 77.9192 181.253 77.5714 180.767 76.9706C180.28 76.3698 180.084 75.6185 180.179 74.7168L180.681 69.9431ZM195.958 71.8504C195.937 72.0493 195.985 72.222 196.104 72.3686C196.223 72.5151 196.382 72.5988 196.581 72.6197L200.161 72.996C201.062 73.0908 201.757 73.4386 202.243 74.0394C202.73 74.6402 202.926 75.3915 202.831 76.2932L202.747 77.0888C202.652 77.9905 202.305 78.6846 201.704 79.1712C201.103 79.6577 200.352 79.8536 199.45 79.7588C198.601 79.6696 197.735 79.5584 196.851 79.4253C195.966 79.2921 195.156 79.16 194.419 79.0289C193.562 78.8853 192.734 78.7312 191.933 78.5666L192.205 75.9808C192.916 76.1091 193.633 76.2381 194.357 76.3678C194.989 76.4745 195.675 76.5801 196.415 76.6847C197.154 76.7893 197.863 76.8771 198.539 76.9482C198.738 76.9691 198.91 76.9202 199.057 76.8015C199.203 76.6828 199.287 76.5241 199.308 76.3252L199.381 75.629L195.105 75.1795C194.203 75.0847 193.509 74.737 193.023 74.1361C192.536 73.5353 192.34 72.7841 192.435 71.8824L192.508 71.1862C192.603 70.2845 192.951 69.5904 193.551 69.1039C194.152 68.6173 194.903 68.4215 195.805 68.5162L202.568 69.227L202.296 71.8128L196.727 71.2274C196.528 71.2065 196.355 71.2554 196.209 71.3741C196.062 71.4927 195.978 71.6515 195.958 71.8504ZM209.395 70.3467L208.328 80.4909L204.848 80.125L205.631 72.6661L204.14 72.5093L204.422 69.8241L209.395 70.3467ZM206.332 66.0028L209.813 66.3686L209.52 69.1533L206.039 68.7875L206.332 66.0028ZM211.197 73.3516C211.301 72.357 211.661 71.6106 212.277 71.1122C212.907 70.6019 213.719 70.399 214.714 70.5036L222.073 71.2771L220.902 82.4157C220.807 83.3174 220.46 84.0115 219.859 84.4981C219.258 84.9846 218.507 85.1805 217.605 85.0857C216.849 85.0063 216.069 84.9041 215.264 84.7794C214.46 84.6546 213.715 84.5294 213.031 84.4039C212.228 84.2658 211.446 84.1166 210.685 83.9562L210.957 81.3704C211.628 81.4946 212.298 81.6187 212.969 81.7428C213.548 81.8439 214.168 81.9426 214.828 82.0388C215.489 82.135 216.11 82.2137 216.694 82.2751C216.893 82.296 217.066 82.2471 217.212 82.1284C217.359 82.0098 217.442 81.851 217.463 81.6521L217.568 80.6575C217.175 80.6967 216.777 80.7219 216.373 80.7331C216.023 80.7499 215.647 80.7573 215.245 80.7553C214.856 80.7546 214.489 80.7362 214.145 80.7L213.448 80.6268C212.547 80.532 211.853 80.1842 211.366 79.5834C210.88 78.9826 210.684 78.2313 210.778 77.3296L211.197 73.3516ZM214.301 77.2977C214.28 77.4966 214.329 77.6693 214.448 77.8158C214.566 77.9624 214.725 78.0461 214.924 78.067L215.421 78.1193C215.74 78.1527 216.039 78.1775 216.319 78.1935C216.613 78.1976 216.874 78.1983 217.103 78.1954C217.357 78.1954 217.599 78.1873 217.829 78.1712L218.31 73.5964L215.525 73.3038C214.995 73.248 214.702 73.4853 214.646 74.0158L214.301 77.2977ZM227.446 71.8418L227.54 72.8572C227.909 72.668 228.301 72.5081 228.717 72.3776C229.077 72.2679 229.475 72.1758 229.912 72.101C230.35 72.013 230.795 71.9927 231.246 72.0401L232.141 72.1342C233.043 72.2289 233.737 72.5767 234.223 73.1775C234.71 73.7784 234.906 74.5296 234.811 75.4313L233.996 83.1886L230.515 82.8227L231.267 75.6622C231.288 75.4633 231.239 75.2905 231.121 75.144C231.002 74.9975 230.843 74.9137 230.644 74.8928L229.948 74.8197C229.696 74.7932 229.429 74.7852 229.146 74.7957C228.864 74.8062 228.6 74.8255 228.356 74.8534C228.072 74.8772 227.793 74.9149 227.52 74.9666L226.736 82.4255L223.255 82.0597L224.363 71.5177L227.446 71.8418ZM245.991 77.1091C245.97 77.308 246.018 77.4807 246.137 77.6273C246.256 77.7738 246.415 77.8575 246.613 77.8784L250.194 78.2547C251.095 78.3495 251.79 78.6973 252.276 79.2981C252.763 79.8989 252.959 80.6502 252.864 81.5519L252.78 82.3475C252.685 83.2492 252.338 83.9433 251.737 84.4298C251.136 84.9164 250.385 85.1123 249.483 85.0175C248.634 84.9283 247.768 84.8171 246.884 84.6839C245.999 84.5508 245.189 84.4187 244.452 84.2876C243.595 84.1439 242.767 83.9898 241.966 83.8253L242.238 81.2395C242.949 81.3678 243.666 81.4968 244.39 81.6265C245.022 81.7332 245.708 81.8388 246.448 81.9434C247.187 82.0479 247.896 82.1358 248.572 82.2068C248.771 82.2277 248.943 82.1789 249.09 82.0602C249.236 81.9415 249.32 81.7827 249.341 81.5838L249.414 80.8877L245.138 80.4382C244.236 80.3434 243.542 79.9956 243.056 79.3948C242.569 78.794 242.373 78.0428 242.468 77.1411L242.541 76.4449C242.636 75.5432 242.984 74.8491 243.584 74.3625C244.185 73.876 244.936 73.6801 245.838 73.7749L252.601 74.4857L252.329 77.0715L246.76 76.4861C246.561 76.4652 246.388 76.5141 246.242 76.6327C246.095 76.7514 246.011 76.9102 245.991 77.1091ZM259.365 75.1967L261.852 75.458L261.569 78.1432L259.083 77.8819L258.602 82.4567C258.581 82.6556 258.63 82.8283 258.749 82.9748C258.867 83.1214 259.026 83.2051 259.225 83.226L261.811 83.4978L261.539 86.0835C261.15 86.0829 260.743 86.0735 260.315 86.0555C259.955 86.0444 259.548 86.0217 259.096 85.9876C258.642 85.9667 258.19 85.9326 257.739 85.8852C256.837 85.7905 256.143 85.4427 255.657 84.8418C255.17 84.241 254.974 83.4898 255.069 82.5881L255.602 77.516L254.409 77.3906L254.691 74.7054L255.884 74.8308L256.533 72.4858L259.616 72.8098L259.365 75.1967ZM270.896 87.067L270.802 86.0516C270.433 86.2408 270.041 86.4006 269.625 86.5312C269.265 86.6408 268.867 86.733 268.43 86.8078C267.992 86.8958 267.547 86.9161 267.096 86.8687L266.201 86.7746C265.299 86.6798 264.605 86.3321 264.119 85.7312C263.632 85.1304 263.436 84.3792 263.531 83.4775L264.346 75.7202L267.827 76.086L267.075 83.2466C267.054 83.4455 267.103 83.6182 267.221 83.7648C267.34 83.9113 267.499 83.995 267.698 84.0159L268.394 84.0891C268.646 84.1156 268.913 84.1236 269.196 84.1131C269.478 84.1025 269.742 84.0833 269.986 84.0554C270.27 84.0316 270.549 83.9939 270.822 83.9422L271.606 76.4833L275.087 76.8491L273.979 87.391L270.896 87.067ZM283.719 88.4147L283.624 87.3993C283.256 87.5884 282.864 87.7483 282.448 87.8789C282.087 87.9885 281.689 88.0807 281.252 88.1554C280.814 88.2435 280.369 88.2638 279.918 88.2164L279.023 88.1223C278.122 88.0275 277.428 87.6797 276.941 87.0789C276.455 86.4781 276.259 85.7268 276.353 84.8251L276.834 80.2503C276.939 79.2558 277.299 78.5094 277.914 78.011C278.544 77.5007 279.357 77.2978 280.351 77.4024L284.429 77.8309L284.784 74.4496L288.265 74.8154L286.802 88.7387L283.719 88.4147ZM284.147 80.5161L281.163 80.2026C280.633 80.1468 280.339 80.3841 280.284 80.9146L279.897 84.5943C279.876 84.7932 279.925 84.9659 280.044 85.1125C280.162 85.259 280.321 85.3427 280.52 85.3636L281.216 85.4368C281.468 85.4633 281.735 85.4713 282.018 85.4607C282.301 85.4502 282.564 85.431 282.808 85.403C283.092 85.3793 283.371 85.3415 283.645 85.2899L284.147 80.5161ZM294.529 79.2947L293.463 89.4388L289.982 89.073L290.766 81.614L289.274 81.4573L289.556 78.772L294.529 79.2947ZM291.466 74.9508L294.947 75.3166L294.654 78.1013L291.173 77.7354L291.466 74.9508ZM306.811 87.8252C306.706 88.8197 306.339 89.5721 305.709 90.0824C305.093 90.5808 304.288 90.7777 303.294 90.6732L298.719 90.1924C297.724 90.0878 296.971 89.7271 296.46 89.1103C295.963 88.4816 295.766 87.6699 295.871 86.6754L296.352 82.1006C296.456 81.1061 296.816 80.3596 297.432 79.8612C298.062 79.351 298.874 79.1481 299.869 79.2526L304.443 79.7335C305.438 79.838 306.184 80.2046 306.681 80.8333C307.192 81.4502 307.396 82.2559 307.291 83.2504L306.811 87.8252ZM303.779 83.1829C303.835 82.6525 303.598 82.3594 303.067 82.3037L300.68 82.0528C300.15 81.9971 299.857 82.2344 299.801 82.7648L299.383 86.7429C299.327 87.2733 299.565 87.5664 300.095 87.6221L302.482 87.873C303.012 87.9288 303.305 87.6914 303.361 87.161L303.779 83.1829ZM320.03 81.5728L322.517 81.8341L322.234 84.5193L319.748 84.258L319.267 88.8328C319.246 89.0317 319.295 89.2044 319.414 89.351C319.533 89.4975 319.691 89.5812 319.89 89.6022L322.476 89.8739L322.204 92.4597C321.815 92.459 321.408 92.4497 320.98 92.4316C320.62 92.4205 320.213 92.3979 319.761 92.3638C319.307 92.3429 318.855 92.3088 318.404 92.2614C317.502 92.1666 316.808 91.8188 316.322 91.218C315.835 90.6172 315.639 89.8659 315.734 88.9642L316.267 83.8922L315.074 83.7667L315.356 81.0815L316.549 81.207L317.198 78.8619L320.281 79.186L320.03 81.5728ZM330.618 85.1994C330.339 85.1701 330.053 85.1534 329.758 85.1493C329.478 85.1333 329.224 85.1267 328.996 85.1295C328.727 85.1414 328.465 85.1474 328.21 85.1474L327.384 93.0041L323.903 92.6383L325.367 78.715L328.848 79.0808L328.471 82.6611C328.864 82.622 329.262 82.5968 329.666 82.5855C330.016 82.5687 330.386 82.5607 330.774 82.5613C331.176 82.5633 331.55 82.5825 331.895 82.6187L332.79 82.7128C333.691 82.8075 334.385 83.1553 334.872 83.7561C335.359 84.357 335.554 85.1082 335.46 86.0099L334.644 93.7672L331.163 93.4013L331.937 86.0419C331.958 85.843 331.909 85.6703 331.79 85.5237C331.672 85.3772 331.513 85.2934 331.314 85.2725L330.618 85.1994ZM341.179 91.8397C341.431 91.8662 341.698 91.8742 341.981 91.8637C342.264 91.8532 342.527 91.8339 342.771 91.806C343.056 91.7822 343.334 91.7445 343.608 91.6928L343.733 90.4994L340.849 90.1962C340.65 90.1753 340.478 90.2242 340.331 90.3429C340.184 90.4615 340.101 90.6203 340.08 90.8192L340.059 91.0181C340.038 91.217 340.087 91.3897 340.206 91.5363C340.324 91.6828 340.483 91.7665 340.682 91.7875L341.179 91.8397ZM339.196 94.4467C338.294 94.3519 337.6 94.0041 337.114 93.4033C336.627 92.8025 336.431 92.0512 336.526 91.1495L336.62 90.2545C336.715 89.3528 337.063 88.6586 337.663 88.1721C338.264 87.6856 339.015 87.4897 339.917 87.5845L343.995 88.013L344.078 87.2174C344.099 87.0185 344.05 86.8458 343.932 86.6993C343.813 86.5527 343.654 86.469 343.455 86.4481C342.925 86.3923 342.346 86.3516 341.719 86.3259C341.106 86.2883 340.525 86.2608 339.978 86.2435C339.336 86.2296 338.694 86.2091 338.053 86.182L338.315 83.6957C339.052 83.6928 339.802 83.7045 340.563 83.7309C341.219 83.7462 341.933 83.7743 342.706 83.8154C343.48 83.8564 344.218 83.9139 344.92 83.9878C345.822 84.0825 346.516 84.4303 347.003 85.0312C347.489 85.632 347.685 86.3832 347.59 87.2849L346.775 95.0422L343.692 94.7182L343.598 93.7027C343.229 93.8919 342.837 94.0518 342.421 94.1824C342.061 94.292 341.663 94.3842 341.226 94.4589C340.787 94.5469 340.343 94.5672 339.892 94.5199L339.196 94.4467ZM354.044 85.1478L356.53 85.4091L356.248 88.0943L353.761 87.833L353.281 92.4078C353.26 92.6067 353.309 92.7794 353.427 92.9259C353.546 93.0725 353.705 93.1562 353.904 93.1771L356.489 93.4489L356.218 96.0346C355.829 96.034 355.421 96.0246 354.994 96.0066C354.633 95.9955 354.227 95.9728 353.774 95.9387C353.321 95.9178 352.868 95.8837 352.418 95.8363C351.516 95.7416 350.822 95.3938 350.335 94.793C349.849 94.1921 349.653 93.4409 349.748 92.5392L350.281 87.4671L349.087 87.3417L349.369 84.6565L350.563 84.7819L351.212 82.4369L354.295 82.7609L354.044 85.1478ZM371.637 97.6553L371.543 96.6399C371.175 96.8291 370.782 96.989 370.366 97.1195C370.006 97.2292 369.608 97.3213 369.171 97.3961C368.733 97.4841 368.288 97.5044 367.837 97.457L366.942 97.3629C366.041 97.2682 365.346 96.9204 364.86 96.3196C364.373 95.7187 364.177 94.9675 364.272 94.0658L364.753 89.491C364.858 88.4965 365.218 87.75 365.833 87.2516C366.463 86.7414 367.276 86.5385 368.27 86.643L372.348 87.0716L372.703 83.6902L376.184 84.0561L374.72 97.9794L371.637 97.6553ZM372.065 89.7568L369.082 89.4432C368.551 89.3875 368.258 89.6248 368.203 90.1552L367.816 93.8349C367.795 94.0338 367.844 94.2066 367.962 94.3531C368.081 94.4996 368.24 94.5834 368.439 94.6043L369.135 94.6774C369.387 94.7039 369.654 94.7119 369.937 94.7014C370.219 94.6909 370.483 94.6716 370.727 94.6437C371.011 94.6199 371.29 94.5822 371.564 94.5305L372.065 89.7568ZM381.951 90.3936C381.42 90.3378 381.127 90.5752 381.071 91.1056L380.956 92.1995L384.338 92.5549L384.453 91.461C384.509 90.9305 384.271 90.6375 383.741 90.5817L381.951 90.3936ZM377.601 90.6403C377.706 89.6457 378.066 88.8993 378.681 88.4009C379.311 87.8906 380.123 87.6878 381.118 87.7923L385.096 88.2104C386.091 88.3149 386.836 88.6816 387.333 89.3103C387.845 89.9271 388.049 90.7328 387.944 91.7274L387.557 95.4071L380.695 94.6858L380.611 95.4815C380.591 95.6804 380.639 95.8531 380.758 95.9996C380.877 96.1462 381.036 96.2299 381.234 96.2508C381.805 96.3107 382.423 96.3623 383.088 96.4054C383.768 96.45 384.401 96.483 384.988 96.5046C385.67 96.5226 386.352 96.5407 387.034 96.5587L386.773 99.045C385.995 99.0437 385.199 99.0271 384.385 98.9951C383.69 98.9757 382.936 98.9434 382.123 98.8981C381.31 98.8529 380.525 98.7906 379.769 98.7111C378.868 98.6163 378.173 98.2686 377.687 97.6677C377.2 97.0669 377.004 96.3157 377.099 95.414L377.601 90.6403ZM392.878 92.5475C392.857 92.7464 392.905 92.9192 393.024 93.0657C393.143 93.2122 393.302 93.296 393.5 93.3169L397.081 93.6932C397.982 93.7879 398.677 94.1357 399.163 94.7366C399.65 95.3374 399.846 96.0886 399.751 96.9903L399.667 97.7859C399.572 98.6876 399.225 99.3818 398.624 99.8683C398.023 100.355 397.272 100.551 396.37 100.456C395.521 100.367 394.655 100.256 393.771 100.122C392.886 99.9892 392.076 99.8571 391.339 99.726C390.482 99.5824 389.654 99.4283 388.853 99.2637L389.125 96.6779C389.836 96.8062 390.553 96.9352 391.277 97.0649C391.909 97.1716 392.595 97.2772 393.335 97.3818C394.074 97.4864 394.783 97.5742 395.459 97.6453C395.658 97.6662 395.83 97.6173 395.977 97.4986C396.123 97.38 396.207 97.2212 396.228 97.0223L396.301 96.3261L392.025 95.8766C391.123 95.7819 390.429 95.4341 389.943 94.8333C389.456 94.2325 389.26 93.4812 389.355 92.5795L389.428 91.8833C389.523 90.9816 389.871 90.2875 390.471 89.801C391.072 89.3145 391.823 89.1186 392.725 89.2134L399.488 89.9241L399.216 92.5099L393.647 91.9245C393.448 91.9036 393.275 91.9525 393.129 92.0712C392.982 92.1898 392.898 92.3486 392.878 92.5475ZM406.315 91.0439L405.248 101.188L401.768 100.822L402.551 93.3632L401.06 93.2064L401.342 90.5212L406.315 91.0439ZM403.252 86.6999L406.733 87.0658L406.44 89.8504L402.959 89.4846L403.252 86.6999ZM408.117 94.0487C408.221 93.0542 408.581 92.3077 409.197 91.8093C409.827 91.299 410.639 91.0962 411.634 91.2007L418.993 91.9742L417.822 103.113C417.728 104.015 417.38 104.709 416.779 105.195C416.178 105.682 415.427 105.878 414.525 105.783C413.769 105.703 412.989 105.601 412.184 105.476C411.38 105.352 410.635 105.227 409.951 105.101C409.148 104.963 408.366 104.814 407.605 104.653L407.877 102.068C408.548 102.192 409.218 102.316 409.889 102.44C410.468 102.541 411.088 102.64 411.748 102.736C412.409 102.832 413.03 102.911 413.614 102.972C413.813 102.993 413.986 102.944 414.132 102.826C414.279 102.707 414.362 102.548 414.383 102.349L414.488 101.355C414.095 101.394 413.697 101.419 413.293 101.43C412.943 101.447 412.567 101.454 412.165 101.452C411.776 101.452 411.409 101.433 411.065 101.397L410.368 101.324C409.467 101.229 408.773 100.881 408.286 100.281C407.8 99.6797 407.604 98.9285 407.698 98.0268L408.117 94.0487ZM411.221 97.9948C411.2 98.1937 411.249 98.3664 411.368 98.513C411.486 98.6595 411.645 98.7432 411.844 98.7641L412.341 98.8164C412.66 98.8499 412.959 98.8746 413.239 98.8906C413.533 98.8947 413.794 98.8954 414.023 98.8926C414.277 98.8925 414.52 98.8845 414.749 98.8684L415.23 94.2936L412.445 94.0009C411.915 93.9451 411.622 94.1825 411.566 94.7129L411.221 97.9948ZM424.366 92.5389L424.46 93.5543C424.829 93.3651 425.221 93.2053 425.637 93.0747C425.997 92.9651 426.395 92.8729 426.832 92.7981C427.27 92.7101 427.715 92.6898 428.166 92.7372L429.061 92.8313C429.963 92.9261 430.657 93.2739 431.143 93.8747C431.63 94.4755 431.826 95.2267 431.731 96.1284L430.916 103.886L427.435 103.52L428.187 96.3593C428.208 96.1604 428.159 95.9877 428.041 95.8411C427.922 95.6946 427.763 95.6109 427.564 95.59L426.868 95.5168C426.616 95.4903 426.349 95.4823 426.066 95.4928C425.784 95.5034 425.52 95.5226 425.276 95.5505C424.992 95.5743 424.713 95.612 424.44 95.6637L423.656 103.123L420.175 102.757L421.283 92.2149L424.366 92.5389ZM436.649 97.1481C436.628 97.347 436.677 97.5197 436.796 97.6663C436.914 97.8128 437.073 97.8965 437.272 97.9174L440.852 98.2937C441.754 98.3885 442.448 98.7363 442.935 99.3371C443.421 99.9379 443.617 100.689 443.522 101.591L443.439 102.387C443.344 103.288 442.996 103.982 442.395 104.469C441.794 104.955 441.043 105.151 440.141 105.056C439.293 104.967 438.426 104.856 437.542 104.723C436.658 104.59 435.847 104.458 435.11 104.327C434.254 104.183 433.425 104.029 432.625 103.864L432.897 101.279C433.607 101.407 434.324 101.536 435.048 101.665C435.68 101.772 436.366 101.878 437.106 101.982C437.846 102.087 438.554 102.175 439.23 102.246C439.429 102.267 439.602 102.218 439.748 102.099C439.895 101.981 439.979 101.822 440 101.623L440.073 100.927L435.796 100.477C434.895 100.382 434.2 100.035 433.714 99.4338C433.227 98.833 433.032 98.0818 433.126 97.1801L433.199 96.4839C433.294 95.5822 433.642 94.8881 434.243 94.4015C434.844 93.915 435.595 93.7191 436.497 93.8139L443.259 94.5247L442.988 97.1105L437.418 96.5251C437.219 96.5042 437.047 96.5531 436.9 96.6717C436.754 96.7904 436.67 96.9492 436.649 97.1481ZM455.548 103.86C455.8 103.887 456.068 103.895 456.35 103.884C456.633 103.874 456.896 103.855 457.141 103.827C457.425 103.803 457.704 103.765 457.977 103.713L458.103 102.52L455.218 102.217C455.02 102.196 454.847 102.245 454.7 102.364C454.554 102.482 454.47 102.641 454.449 102.84L454.428 103.039C454.407 103.238 454.456 103.41 454.575 103.557C454.693 103.704 454.852 103.787 455.051 103.808L455.548 103.86ZM453.565 106.467C452.663 106.373 451.969 106.025 451.483 105.424C450.996 104.823 450.8 104.072 450.895 103.17L450.989 102.275C451.084 101.373 451.432 100.679 452.033 100.193C452.633 99.7063 453.385 99.5104 454.286 99.6052L458.364 100.034L458.447 99.2381C458.468 99.0392 458.42 98.8665 458.301 98.72C458.182 98.5734 458.023 98.4897 457.824 98.4688C457.294 98.413 456.715 98.3723 456.088 98.3466C455.475 98.309 454.895 98.2815 454.347 98.2641C453.705 98.2503 453.063 98.2298 452.423 98.2027L452.684 95.7164C453.422 95.7135 454.171 95.7252 454.933 95.7516C455.588 95.7669 456.302 95.795 457.076 95.8361C457.849 95.8771 458.587 95.9346 459.29 96.0085C460.191 96.1032 460.886 96.451 461.372 97.0518C461.859 97.6527 462.054 98.4039 461.96 99.3056L461.144 107.063L458.061 106.739L457.967 105.723C457.599 105.913 457.206 106.072 456.79 106.203C456.43 106.313 456.032 106.405 455.595 106.48C455.157 106.568 454.712 106.588 454.261 106.541L453.565 106.467ZM467.418 97.0639L467.513 98.0794C467.881 97.8902 468.273 97.7303 468.689 97.5997C469.05 97.4901 469.448 97.3979 469.885 97.3232C470.323 97.2352 470.768 97.2148 471.219 97.2622L472.114 97.3563C473.015 97.4511 473.709 97.7989 474.196 98.3997C474.682 99.0005 474.878 99.7518 474.784 100.653L473.968 108.411L470.487 108.045L471.24 100.884C471.261 100.685 471.212 100.513 471.093 100.366C470.975 100.22 470.816 100.136 470.617 100.115L469.921 100.042C469.669 100.015 469.402 100.007 469.119 100.018C468.836 100.028 468.573 100.048 468.329 100.076C468.045 100.099 467.766 100.137 467.492 100.189L466.708 107.648L463.227 107.282L464.335 96.7399L467.418 97.0639ZM483.513 109.414L483.419 108.399C483.05 108.588 482.658 108.748 482.242 108.878C481.882 108.988 481.484 109.08 481.047 109.155C480.609 109.243 480.164 109.263 479.713 109.216L478.818 109.122C477.916 109.027 477.222 108.679 476.736 108.078C476.249 107.477 476.053 106.726 476.148 105.824L476.629 101.25C476.734 100.255 477.094 99.5086 477.709 99.0102C478.339 98.5 479.151 98.2971 480.146 98.4016L484.224 98.8302L484.579 95.4488L488.06 95.8147L486.596 109.738L483.513 109.414ZM483.941 101.515L480.958 101.202C480.427 101.146 480.134 101.383 480.078 101.914L479.692 105.594C479.671 105.792 479.72 105.965 479.838 106.112C479.957 106.258 480.116 106.342 480.315 106.363L481.011 106.436C481.263 106.463 481.53 106.471 481.813 106.46C482.095 106.45 482.359 106.43 482.603 106.402C482.887 106.379 483.166 106.341 483.44 106.289L483.941 101.515ZM502.602 111.42L502.508 110.405C502.139 110.594 501.747 110.754 501.331 110.884C500.971 110.994 500.572 111.086 500.136 111.161C499.697 111.249 499.253 111.269 498.802 111.222L497.907 111.128C497.005 111.033 496.311 110.685 495.824 110.084C495.338 109.484 495.142 108.732 495.237 107.831L495.718 103.256C495.822 102.261 496.182 101.515 496.798 101.017C497.428 100.506 498.24 100.303 499.235 100.408L503.312 100.837L503.668 97.4551L507.148 97.821L505.685 111.744L502.602 111.42ZM503.03 103.522L500.046 103.208C499.516 103.152 499.223 103.39 499.167 103.92L498.78 107.6C498.759 107.799 498.808 107.971 498.927 108.118C499.046 108.265 499.204 108.348 499.403 108.369L500.1 108.442C500.351 108.469 500.619 108.477 500.901 108.466C501.184 108.456 501.448 108.437 501.692 108.409C501.976 108.385 502.255 108.347 502.528 108.295L503.03 103.522ZM512.915 104.158C512.385 104.103 512.092 104.34 512.036 104.87L511.921 105.964L515.302 106.32L515.417 105.226C515.473 104.695 515.236 104.402 514.705 104.347L512.915 104.158ZM508.566 104.405C508.67 103.411 509.03 102.664 509.646 102.166C510.276 101.656 511.088 101.453 512.082 101.557L516.061 101.975C517.055 102.08 517.801 102.446 518.298 103.075C518.81 103.692 519.013 104.498 518.909 105.492L518.522 109.172L511.66 108.451L511.576 109.246C511.555 109.445 511.604 109.618 511.723 109.765C511.841 109.911 512 109.995 512.199 110.016C512.769 110.076 513.387 110.127 514.053 110.17C514.732 110.215 515.365 110.248 515.953 110.27C516.635 110.288 517.317 110.306 517.999 110.324L517.737 112.81C516.96 112.809 516.164 112.792 515.349 112.76C514.654 112.741 513.9 112.708 513.087 112.663C512.274 112.618 511.49 112.555 510.734 112.476C509.832 112.381 509.138 112.033 508.651 111.433C508.165 110.832 507.969 110.081 508.064 109.179L508.566 104.405ZM528.17 103.449L531.849 103.836L526.763 113.96L522.785 113.542L519.915 102.582L523.595 102.968L525.13 110.369L528.17 103.449ZM536.588 106.647C536.057 106.591 535.764 106.828 535.709 107.359L535.594 108.453L538.975 108.808L539.09 107.714C539.146 107.184 538.908 106.89 538.378 106.835L536.588 106.647ZM532.238 106.893C532.343 105.899 532.703 105.152 533.318 104.654C533.948 104.144 534.761 103.941 535.755 104.045L539.733 104.463C540.728 104.568 541.474 104.935 541.971 105.563C542.482 106.18 542.686 106.986 542.581 107.98L542.195 111.66L535.332 110.939L535.249 111.734C535.228 111.933 535.277 112.106 535.395 112.253C535.514 112.399 535.673 112.483 535.872 112.504C536.442 112.564 537.06 112.615 537.726 112.658C538.405 112.703 539.038 112.736 539.626 112.758C540.308 112.776 540.989 112.794 541.671 112.812L541.41 115.298C540.633 115.297 539.837 115.28 539.022 115.248C538.327 115.229 537.573 115.196 536.76 115.151C535.947 115.106 535.162 115.044 534.407 114.964C533.505 114.869 532.811 114.522 532.324 113.921C531.838 113.32 531.642 112.569 531.737 111.667L532.238 106.893ZM545.331 101.834L548.812 102.2L547.693 112.841C547.672 113.04 547.721 113.213 547.84 113.36C547.959 113.506 548.117 113.59 548.316 113.611L549.51 113.736L549.238 116.322C548.969 116.334 548.693 116.338 548.412 116.336C548.171 116.337 547.91 116.33 547.63 116.314C547.349 116.311 547.082 116.296 546.83 116.27C545.929 116.175 545.234 115.827 544.748 115.227C544.261 114.626 544.066 113.874 544.16 112.973L545.331 101.834ZM561.98 114.645C561.876 115.639 561.508 116.392 560.878 116.902C560.263 117.4 559.458 117.597 558.463 117.493L553.888 117.012C552.894 116.907 552.141 116.547 551.629 115.93C551.132 115.301 550.936 114.489 551.04 113.495L551.521 108.92C551.626 107.925 551.986 107.179 552.601 106.681C553.231 106.17 554.044 105.967 555.038 106.072L559.613 106.553C560.607 106.657 561.353 107.024 561.85 107.653C562.362 108.27 562.565 109.075 562.461 110.07L561.98 114.645ZM558.949 110.002C559.004 109.472 558.767 109.179 558.237 109.123L555.85 108.872C555.319 108.816 555.026 109.054 554.971 109.584L554.552 113.562C554.497 114.093 554.734 114.386 555.264 114.442L557.651 114.692C558.182 114.748 558.475 114.511 558.531 113.98L558.949 110.002ZM567.516 115.528L570.499 115.842C571.03 115.897 571.323 115.66 571.378 115.13L571.765 111.45C571.786 111.251 571.737 111.078 571.619 110.932C571.5 110.785 571.341 110.702 571.142 110.681L570.446 110.607C570.194 110.581 569.927 110.573 569.644 110.583C569.362 110.594 569.098 110.613 568.854 110.641C568.57 110.665 568.291 110.703 568.017 110.754L567.516 115.528ZM567.233 118.213L566.878 121.595L563.397 121.229L564.861 107.306L567.944 107.63L568.038 108.645C568.406 108.456 568.799 108.296 569.215 108.165C569.575 108.056 569.973 107.964 570.41 107.889C570.848 107.801 571.293 107.78 571.744 107.828L572.639 107.922C573.54 108.017 574.235 108.364 574.721 108.965C575.208 109.566 575.404 110.317 575.309 111.219L574.828 115.794C574.723 116.788 574.356 117.541 573.726 118.051C573.11 118.549 572.305 118.746 571.311 118.642L567.233 118.213ZM580.227 112.239C580.206 112.438 580.255 112.61 580.373 112.757C580.492 112.903 580.651 112.987 580.85 113.008L584.43 113.384C585.332 113.479 586.026 113.827 586.512 114.428C586.999 115.029 587.195 115.78 587.1 116.682L587.016 117.477C586.922 118.379 586.574 119.073 585.973 119.559C585.372 120.046 584.621 120.242 583.719 120.147C582.871 120.058 582.004 119.947 581.12 119.814C580.236 119.68 579.425 119.548 578.688 119.417C577.832 119.274 577.003 119.119 576.203 118.955L576.474 116.369C577.185 116.497 577.902 116.626 578.626 116.756C579.258 116.863 579.944 116.968 580.684 117.073C581.424 117.178 582.132 117.265 582.808 117.336C583.007 117.357 583.18 117.309 583.326 117.19C583.473 117.071 583.557 116.912 583.577 116.713L583.651 116.017L579.374 115.568C578.472 115.473 577.778 115.125 577.292 114.524C576.805 113.924 576.609 113.172 576.704 112.271L576.777 111.575C576.872 110.673 577.22 109.979 577.821 109.492C578.422 109.006 579.173 108.81 580.074 108.905L586.837 109.615L586.565 112.201L580.996 111.616C580.797 111.595 580.625 111.644 580.478 111.762C580.331 111.881 580.248 112.04 580.227 112.239ZM79.7694 88.8988L82.2286 82.7221L86.0077 83.1193L81.6178 93.3163L77.9381 92.9295L76.618 86.3555L73.96 92.5114L70.2803 92.1246L68.1063 81.2378L71.8855 81.635L73.0067 88.1881L75.4658 82.0113L78.6483 82.3458L79.7694 88.8988ZM90.7423 85.9296C90.2118 85.8738 89.9188 86.1111 89.863 86.6415L89.748 87.7355L93.1294 88.0909L93.2444 86.9969C93.3001 86.4665 93.0628 86.1735 92.5324 86.1177L90.7423 85.9296ZM86.3926 86.1762C86.4972 85.1817 86.8572 84.4353 87.4726 83.9369C88.1028 83.4266 88.9151 83.2237 89.9096 83.3283L93.8877 83.7464C94.8822 83.8509 95.628 84.2175 96.125 84.8463C96.6366 85.4631 96.8402 86.2688 96.7357 87.2633L96.3489 90.9431L89.4867 90.2218L89.4031 91.0174C89.3822 91.2163 89.4311 91.3891 89.5497 91.5356C89.6684 91.6821 89.8272 91.7659 90.0261 91.7868C90.5963 91.8467 91.2143 91.8983 91.8801 91.9414C92.5591 91.986 93.1925 92.019 93.7801 92.0406C94.462 92.0586 95.1438 92.0766 95.8257 92.0947L95.5644 94.581C94.7869 94.5797 93.9909 94.5631 93.1765 94.5311C92.4814 94.5117 91.7273 94.4794 90.9142 94.4341C90.1012 94.3889 89.3167 94.3265 88.5609 94.2471C87.6592 94.1523 86.9651 93.8045 86.4785 93.2037C85.992 92.6029 85.7961 91.8516 85.8909 90.95L86.3926 86.1762ZM105.857 88.4231C105.878 88.2242 105.829 88.0515 105.71 87.9049C105.591 87.7584 105.433 87.6747 105.234 87.6538L104.736 87.6015C104.405 87.5666 104.098 87.5479 103.817 87.5451C103.537 87.5291 103.283 87.5225 103.055 87.5253C102.799 87.5386 102.557 87.5467 102.329 87.5495L101.785 92.721L104.57 93.0137C105.1 93.0695 105.393 92.8321 105.449 92.3017L105.857 88.4231ZM108.898 92.9659C108.794 93.9605 108.427 94.7128 107.796 95.2231C107.181 95.7215 106.376 95.9184 105.381 95.8139L98.022 95.0404L99.4854 81.1171L102.966 81.4829L102.59 85.0632C102.983 85.0241 103.381 84.9989 103.784 84.9877C104.135 84.9709 104.504 84.9628 104.893 84.9634C105.295 84.9654 105.668 84.9846 106.013 85.0208L106.709 85.094C107.611 85.1888 108.305 85.5365 108.792 86.1374C109.278 86.7382 109.474 87.4894 109.379 88.3911L108.898 92.9659ZM114.302 89.4113C114.281 89.6102 114.33 89.7829 114.449 89.9294C114.567 90.076 114.726 90.1597 114.925 90.1806L118.505 90.5569C119.407 90.6517 120.101 90.9995 120.588 91.6003C121.074 92.2011 121.27 92.9524 121.175 93.8541L121.092 94.6497C120.997 95.5514 120.649 96.2455 120.048 96.732C119.447 97.2186 118.696 97.4144 117.794 97.3197C116.946 97.2305 116.079 97.1193 115.195 96.9861C114.311 96.853 113.5 96.7208 112.763 96.5898C111.907 96.4461 111.078 96.292 110.278 96.1274L110.55 93.5417C111.26 93.67 111.977 93.799 112.701 93.9287C113.333 94.0354 114.019 94.141 114.759 94.2456C115.499 94.3501 116.207 94.4379 116.883 94.509C117.082 94.5299 117.255 94.481 117.401 94.3624C117.548 94.2437 117.632 94.0849 117.653 93.886L117.726 93.1899L113.449 92.7404C112.548 92.6456 111.853 92.2978 111.367 91.697C110.88 91.0962 110.685 90.3449 110.779 89.4432L110.852 88.7471C110.947 87.8454 111.295 87.1513 111.896 86.6647C112.497 86.1782 113.248 85.9823 114.15 86.0771L120.912 86.7879L120.641 89.3736L115.071 88.7883C114.872 88.7674 114.7 88.8163 114.553 88.9349C114.407 89.0536 114.323 89.2124 114.302 89.4113ZM127.739 87.9076L126.673 98.0517L123.192 97.6859L123.976 90.227L122.484 90.0702L122.766 87.385L127.739 87.9076ZM124.676 83.5637L128.157 83.9295L127.864 86.7142L124.384 86.3483L124.676 83.5637ZM134.152 88.1794L136.638 88.4407L136.356 91.126L133.87 90.8646L133.389 95.4394C133.368 95.6383 133.417 95.8111 133.536 95.9576C133.654 96.1041 133.813 96.1879 134.012 96.2088L136.598 96.4805L136.326 99.0663C135.937 99.0657 135.529 99.0563 135.102 99.0382C134.741 99.0271 134.335 99.0045 133.882 98.9704C133.429 98.9495 132.977 98.9154 132.526 98.868C131.624 98.7732 130.93 98.4254 130.443 97.8246C129.957 97.2238 129.761 96.4725 129.856 95.5708L130.389 90.4988L129.195 90.3733L129.478 87.6881L130.671 87.8136L131.32 85.4685L134.403 85.7926L134.152 88.1794ZM142.776 91.3985C142.246 91.3428 141.952 91.5801 141.897 92.1105L141.782 93.2045L145.163 93.5599L145.278 92.4659C145.334 91.9355 145.097 91.6424 144.566 91.5867L142.776 91.3985ZM138.426 91.6452C138.531 90.6507 138.891 89.9042 139.506 89.4058C140.136 88.8956 140.949 88.6927 141.943 88.7972L145.921 89.2153C146.916 89.3199 147.662 89.6865 148.159 90.3152C148.67 90.9321 148.874 91.7378 148.769 92.7323L148.383 96.412L141.52 95.6908L141.437 96.4864C141.416 96.6853 141.465 96.858 141.583 97.0046C141.702 97.1511 141.861 97.2348 142.06 97.2557C142.63 97.3157 143.248 97.3672 143.914 97.4104C144.593 97.4549 145.226 97.488 145.814 97.5095C146.496 97.5276 147.178 97.5456 147.859 97.5636L147.598 100.05C146.821 100.049 146.025 100.032 145.21 100C144.515 99.9806 143.761 99.9483 142.948 99.9031C142.135 99.8578 141.35 99.7955 140.595 99.7161C139.693 99.6213 138.999 99.2735 138.512 98.6727C138.026 98.0719 137.83 97.3206 137.925 96.4189L138.426 91.6452ZM153.703 93.5525C153.682 93.7514 153.731 93.9241 153.849 94.0707C153.968 94.2172 154.127 94.3009 154.326 94.3218L157.906 94.6981C158.808 94.7929 159.502 95.1407 159.988 95.7415C160.475 96.3423 160.671 97.0936 160.576 97.9953L160.492 98.7909C160.398 99.6926 160.05 100.387 159.449 100.873C158.848 101.36 158.097 101.556 157.195 101.461C156.347 101.372 155.48 101.26 154.596 101.127C153.712 100.994 152.901 100.862 152.164 100.731C151.308 100.587 150.479 100.433 149.679 100.269L149.951 97.6829C150.661 97.8112 151.378 97.9402 152.102 98.0699C152.734 98.1766 153.42 98.2822 154.16 98.3868C154.9 98.4913 155.608 98.5791 156.284 98.6502C156.483 98.6711 156.656 98.6223 156.802 98.5036C156.949 98.3849 157.033 98.2261 157.053 98.0272L157.127 97.3311L152.85 96.8816C151.948 96.7868 151.254 96.439 150.768 95.8382C150.281 95.2374 150.085 94.4861 150.18 93.5844L150.253 92.8883C150.348 91.9866 150.696 91.2925 151.297 90.8059C151.898 90.3194 152.649 90.1235 153.551 90.2183L160.313 90.9291L160.042 93.5148L154.472 92.9295C154.273 92.9086 154.101 92.9575 153.954 93.0761C153.807 93.1948 153.724 93.3536 153.703 93.5525ZM173.339 92.2982L175.825 92.5595L175.543 95.2447L173.057 94.9834L172.576 99.5582C172.555 99.7571 172.604 99.9298 172.723 100.076C172.841 100.223 173 100.307 173.199 100.328L175.785 100.599L175.513 103.185C175.124 103.184 174.716 103.175 174.289 103.157C173.929 103.146 173.522 103.123 173.07 103.089C172.616 103.068 172.164 103.034 171.713 102.987C170.811 102.892 170.117 102.544 169.631 101.943C169.144 101.343 168.948 100.591 169.043 99.6896L169.576 94.6175L168.383 94.4921L168.665 91.8069L169.858 91.9323L170.507 89.5873L173.59 89.9113L173.339 92.2982ZM183.927 95.9247C183.648 95.8955 183.362 95.8788 183.067 95.8746C182.787 95.8586 182.533 95.852 182.305 95.8548C182.036 95.8668 181.774 95.8727 181.519 95.8728L180.693 103.729L177.212 103.364L178.676 89.4403L182.157 89.8062L181.78 93.3865C182.173 93.3473 182.571 93.3221 182.975 93.3109C183.325 93.2941 183.695 93.286 184.083 93.2867C184.485 93.2887 184.859 93.3078 185.203 93.3441L186.099 93.4381C187 93.5329 187.694 93.8807 188.181 94.4815C188.667 95.0823 188.863 95.8336 188.769 96.7353L187.953 104.493L184.472 104.127L185.246 96.7672C185.267 96.5683 185.218 96.3956 185.099 96.2491C184.981 96.1025 184.822 96.0188 184.623 95.9979L183.927 95.9247ZM194.488 102.565C194.74 102.592 195.007 102.6 195.29 102.589C195.573 102.579 195.836 102.559 196.08 102.531C196.364 102.508 196.643 102.47 196.917 102.418L197.042 101.225L194.158 100.922C193.959 100.901 193.786 100.95 193.64 101.068C193.493 101.187 193.41 101.346 193.389 101.545L193.368 101.743C193.347 101.942 193.396 102.115 193.515 102.262C193.633 102.408 193.792 102.492 193.991 102.513L194.488 102.565ZM192.505 105.172C191.603 105.077 190.909 104.729 190.422 104.129C189.936 103.528 189.74 102.777 189.835 101.875L189.929 100.98C190.024 100.078 190.371 99.384 190.972 98.8975C191.573 98.4109 192.324 98.2151 193.226 98.3098L197.304 98.7384L197.387 97.9428C197.408 97.7439 197.359 97.5712 197.241 97.4246C197.122 97.2781 196.963 97.1944 196.764 97.1735C196.234 97.1177 195.655 97.077 195.027 97.0512C194.415 97.0137 193.834 96.9862 193.287 96.9688C192.644 96.955 192.003 96.9345 191.362 96.9074L191.624 94.4211C192.361 94.4181 193.111 94.4299 193.872 94.4563C194.528 94.4715 195.242 94.4997 196.015 94.5407C196.789 94.5818 197.527 94.6393 198.229 94.7131C199.131 94.8079 199.825 95.1557 200.312 95.7565C200.798 96.3573 200.994 97.1086 200.899 98.0103L200.084 105.768L197.001 105.444L196.907 104.428C196.538 104.617 196.146 104.777 195.73 104.908C195.37 105.017 194.971 105.11 194.535 105.184C194.096 105.272 193.652 105.293 193.201 105.245L192.505 105.172ZM207.353 95.8731L209.839 96.1344L209.557 98.8197L207.07 98.5583L206.59 103.133C206.569 103.332 206.618 103.505 206.736 103.651C206.855 103.798 207.014 103.882 207.213 103.902L209.798 104.174L209.527 106.76C209.138 106.759 208.73 106.75 208.303 106.732C207.942 106.721 207.535 106.698 207.083 106.664C206.63 106.643 206.177 106.609 205.726 106.562C204.825 106.467 204.131 106.119 203.644 105.518C203.158 104.918 202.962 104.166 203.056 103.265L203.59 98.1925L202.396 98.0671L202.678 95.3818L203.872 95.5073L204.52 93.1622L207.603 93.4863L207.353 95.8731ZM222.929 97.9125L221.863 108.057L218.382 107.691L219.166 100.232L217.675 100.075L217.957 97.3899L222.929 97.9125ZM219.867 93.5686L223.348 93.9344L223.055 96.7191L219.574 96.3532L219.867 93.5686ZM228.348 98.0798L228.442 99.0952C228.811 98.9061 229.203 98.7462 229.619 98.6156C229.979 98.506 230.377 98.4138 230.814 98.339C231.253 98.251 231.697 98.2307 232.148 98.2781L233.043 98.3722C233.945 98.467 234.639 98.8148 235.125 99.4156C235.612 100.016 235.808 100.768 235.713 101.669L234.898 109.427L231.417 109.061L232.17 101.9C232.19 101.701 232.142 101.529 232.023 101.382C231.904 101.236 231.745 101.152 231.547 101.131L230.85 101.058C230.598 101.031 230.331 101.023 230.048 101.034C229.766 101.044 229.502 101.064 229.258 101.091C228.974 101.115 228.695 101.153 228.422 101.205L227.638 108.664L224.157 108.298L225.265 97.7558L228.348 98.0798ZM237.559 102.266C237.663 101.271 238.023 100.525 238.638 100.026C239.269 99.5159 240.081 99.313 241.075 99.4175L247.44 100.087L247.158 102.772L241.887 102.218C241.357 102.162 241.064 102.399 241.008 102.93L240.6 106.808C240.579 107.007 240.628 107.18 240.747 107.327C240.866 107.473 241.024 107.557 241.223 107.578C241.74 107.632 242.312 107.679 242.938 107.718C243.564 107.757 244.151 107.785 244.699 107.802C245.341 107.816 245.983 107.83 246.625 107.844L246.353 110.43C245.602 110.431 244.846 110.419 244.085 110.392C243.429 110.377 242.715 110.349 241.942 110.308C241.182 110.268 240.45 110.211 239.748 110.137C238.846 110.043 238.152 109.695 237.665 109.094C237.179 108.493 236.983 107.742 237.078 106.84L237.559 102.266ZM252.409 100.609L252.472 101.923C252.805 101.689 253.169 101.48 253.564 101.293C253.902 101.141 254.291 101.008 254.732 100.893C255.186 100.78 255.679 100.751 256.209 100.807L257.104 100.901L256.78 103.984L255.09 103.806C254.745 103.77 254.41 103.769 254.085 103.801C253.773 103.836 253.494 103.873 253.248 103.915C252.96 103.978 252.691 104.05 252.441 104.131L251.699 111.192L248.218 110.827L249.326 100.285L252.409 100.609ZM262.222 103.953C261.692 103.897 261.398 104.134 261.343 104.665L261.228 105.759L264.609 106.114L264.724 105.02C264.78 104.49 264.542 104.197 264.012 104.141L262.222 103.953ZM257.872 104.199C257.977 103.205 258.337 102.459 258.952 101.96C259.582 101.45 260.395 101.247 261.389 101.352L265.367 101.77C266.362 101.874 267.108 102.241 267.605 102.87C268.116 103.486 268.32 104.292 268.215 105.287L267.829 108.966L260.966 108.245L260.883 109.041C260.862 109.24 260.911 109.412 261.029 109.559C261.148 109.705 261.307 109.789 261.506 109.81C262.076 109.87 262.694 109.921 263.36 109.965C264.039 110.009 264.672 110.042 265.26 110.064C265.942 110.082 266.623 110.1 267.305 110.118L267.044 112.604C266.267 112.603 265.471 112.586 264.656 112.554C263.961 112.535 263.207 112.503 262.394 112.457C261.581 112.412 260.796 112.35 260.041 112.27C259.139 112.176 258.445 111.828 257.958 111.227C257.472 110.626 257.276 109.875 257.371 108.973L257.872 104.199ZM273.95 110.917C274.202 110.943 274.47 110.951 274.752 110.941C275.035 110.93 275.298 110.911 275.543 110.883C275.827 110.859 276.106 110.822 276.379 110.77L276.505 109.577L273.62 109.273C273.421 109.252 273.249 109.301 273.102 109.42C272.956 109.539 272.872 109.697 272.851 109.896L272.83 110.095C272.809 110.294 272.858 110.467 272.977 110.613C273.095 110.76 273.254 110.844 273.453 110.865L273.95 110.917ZM271.967 113.524C271.065 113.429 270.371 113.081 269.885 112.48C269.398 111.88 269.202 111.128 269.297 110.227L269.391 109.332C269.486 108.43 269.834 107.736 270.435 107.249C271.035 106.763 271.787 106.567 272.688 106.662L276.766 107.09L276.849 106.295C276.87 106.096 276.821 105.923 276.703 105.776C276.584 105.63 276.425 105.546 276.226 105.525C275.696 105.47 275.117 105.429 274.49 105.403C273.877 105.365 273.297 105.338 272.749 105.321C272.107 105.307 271.465 105.286 270.825 105.259L271.086 102.773C271.824 102.77 272.573 102.782 273.335 102.808C273.99 102.823 274.704 102.852 275.478 102.893C276.251 102.934 276.989 102.991 277.692 103.065C278.593 103.16 279.287 103.508 279.774 104.108C280.261 104.709 280.456 105.46 280.362 106.362L279.546 114.119L276.463 113.795L276.369 112.78C276 112.969 275.608 113.129 275.192 113.26C274.832 113.369 274.434 113.461 273.997 113.536C273.559 113.624 273.114 113.644 272.663 113.597L271.967 113.524ZM285.277 107.381C285.256 107.58 285.305 107.753 285.423 107.9C285.542 108.046 285.701 108.13 285.9 108.151L289.48 108.527C290.382 108.622 291.076 108.97 291.562 109.57C292.049 110.171 292.245 110.923 292.15 111.824L292.066 112.62C291.971 113.522 291.624 114.216 291.023 114.702C290.422 115.189 289.671 115.385 288.769 115.29C287.92 115.201 287.054 115.089 286.17 114.956C285.285 114.823 284.475 114.691 283.738 114.56C282.881 114.416 282.053 114.262 281.252 114.098L281.524 111.512C282.235 111.64 282.952 111.769 283.676 111.899C284.308 112.006 284.994 112.111 285.734 112.216C286.474 112.32 287.182 112.408 287.858 112.479C288.057 112.5 288.229 112.451 288.376 112.333C288.523 112.214 288.606 112.055 288.627 111.856L288.7 111.16L284.424 110.711C283.522 110.616 282.828 110.268 282.342 109.667C281.855 109.066 281.659 108.315 281.754 107.413L281.827 106.717C281.922 105.816 282.27 105.121 282.87 104.635C283.471 104.148 284.223 103.952 285.124 104.047L291.887 104.758L291.615 107.344L286.046 106.758C285.847 106.738 285.674 106.786 285.528 106.905C285.381 107.024 285.297 107.183 285.277 107.381ZM298.411 107.756C297.88 107.701 297.587 107.938 297.532 108.468L297.417 109.562L300.798 109.918L300.913 108.824C300.969 108.293 300.731 108 300.201 107.945L298.411 107.756ZM294.061 108.003C294.166 107.009 294.526 106.262 295.141 105.764C295.771 105.253 296.584 105.051 297.578 105.155L301.556 105.573C302.551 105.678 303.297 106.044 303.794 106.673C304.305 107.29 304.509 108.096 304.404 109.09L304.018 112.77L297.155 112.049L297.072 112.844C297.051 113.043 297.1 113.216 297.218 113.362C297.337 113.509 297.496 113.593 297.695 113.614C298.265 113.674 298.883 113.725 299.549 113.768C300.228 113.813 300.861 113.846 301.449 113.867C302.131 113.885 302.812 113.903 303.494 113.922L303.233 116.408C302.456 116.407 301.66 116.39 300.845 116.358C300.15 116.339 299.396 116.306 298.583 116.261C297.77 116.216 296.985 116.153 296.23 116.074C295.328 115.979 294.634 115.631 294.147 115.031C293.661 114.43 293.465 113.679 293.56 112.777L294.061 108.003ZM317.138 107.412L319.624 107.673L319.342 110.359L316.856 110.097L316.375 114.672C316.354 114.871 316.403 115.044 316.521 115.19C316.64 115.337 316.799 115.42 316.998 115.441L319.583 115.713L319.312 118.299C318.923 118.298 318.515 118.289 318.088 118.271C317.727 118.26 317.321 118.237 316.868 118.203C316.415 118.182 315.962 118.148 315.512 118.101C314.61 118.006 313.916 117.658 313.429 117.057C312.943 116.456 312.747 115.705 312.842 114.803L313.375 109.731L312.181 109.606L312.463 106.921L313.657 107.046L314.306 104.701L317.389 105.025L317.138 107.412ZM325.202 108.26L325.265 109.573C325.598 109.34 325.962 109.13 326.357 108.944C326.694 108.792 327.084 108.658 327.525 108.544C327.979 108.431 328.472 108.402 329.002 108.458L329.897 108.552L329.573 111.635L327.882 111.457C327.538 111.421 327.203 111.419 326.877 111.452C326.565 111.486 326.287 111.524 326.041 111.565C325.753 111.629 325.484 111.701 325.234 111.782L324.492 118.843L321.011 118.477L322.119 107.936L325.202 108.26ZM334.11 117.24C334.362 117.266 334.63 117.274 334.912 117.264C335.195 117.253 335.458 117.234 335.703 117.206C335.987 117.182 336.266 117.145 336.539 117.093L336.665 115.9L333.78 115.596C333.582 115.576 333.409 115.624 333.262 115.743C333.116 115.862 333.032 116.021 333.011 116.219L332.99 116.418C332.969 116.617 333.018 116.79 333.137 116.937C333.255 117.083 333.414 117.167 333.613 117.188L334.11 117.24ZM332.127 119.847C331.225 119.752 330.531 119.404 330.045 118.804C329.558 118.203 329.362 117.451 329.457 116.55L329.551 115.655C329.646 114.753 329.994 114.059 330.595 113.572C331.195 113.086 331.947 112.89 332.848 112.985L336.926 113.413L337.009 112.618C337.03 112.419 336.982 112.246 336.863 112.1C336.744 111.953 336.585 111.869 336.386 111.848C335.856 111.793 335.277 111.752 334.65 111.726C334.037 111.689 333.457 111.661 332.909 111.644C332.267 111.63 331.625 111.609 330.985 111.582L331.246 109.096C331.984 109.093 332.733 109.105 333.495 109.131C334.15 109.146 334.864 109.175 335.638 109.216C336.411 109.257 337.149 109.314 337.852 109.388C338.753 109.483 339.448 109.831 339.934 110.431C340.421 111.032 340.616 111.783 340.522 112.685L339.706 120.442L336.623 120.118L336.529 119.103C336.16 119.292 335.768 119.452 335.352 119.583C334.992 119.692 334.594 119.784 334.157 119.859C333.719 119.947 333.274 119.967 332.823 119.92L332.127 119.847ZM347.964 109.747C347.765 109.726 347.592 109.775 347.446 109.894C347.299 110.012 347.216 110.171 347.195 110.37L347.09 111.365L350.372 111.709L350.09 114.395L346.808 114.05L346.066 121.111L342.585 120.745L343.327 113.684L341.935 113.538L342.217 110.852L343.609 110.999L343.756 109.606C343.851 108.705 344.198 108.011 344.799 107.524C345.4 107.037 346.151 106.842 347.053 106.936C347.504 106.984 348 107.049 348.54 107.133C349.096 107.205 349.618 107.28 350.106 107.358C350.672 107.457 351.238 107.551 351.806 107.637L351.523 110.322C351.142 110.255 350.747 110.18 350.34 110.097C349.999 110.035 349.616 109.974 349.193 109.916C348.772 109.845 348.362 109.789 347.964 109.747ZM357.217 110.72C357.018 110.699 356.845 110.748 356.699 110.866C356.552 110.985 356.469 111.144 356.448 111.343L356.343 112.337L359.625 112.682L359.343 115.367L356.061 115.022L355.319 122.083L351.838 121.718L352.58 114.656L351.188 114.51L351.47 111.825L352.862 111.971L353.009 110.579C353.103 109.677 353.451 108.983 354.052 108.497C354.653 108.01 355.404 107.814 356.306 107.909C356.757 107.956 357.253 108.022 357.793 108.105C358.349 108.177 358.871 108.252 359.359 108.33C359.925 108.43 360.491 108.523 361.059 108.61L360.776 111.295C360.395 111.228 360 111.153 359.593 111.07C359.251 111.007 358.869 110.947 358.446 110.889C358.025 110.818 357.615 110.761 357.217 110.72ZM365.737 112.922L364.671 123.066L361.19 122.701L361.974 115.242L360.483 115.085L360.765 112.4L365.737 112.922ZM362.675 108.578L366.155 108.944L365.863 111.729L362.382 111.363L362.675 108.578ZM367.539 115.927C367.644 114.933 368.004 114.186 368.619 113.688C369.25 113.177 370.062 112.975 371.056 113.079L377.421 113.748L377.139 116.433L371.868 115.879C371.338 115.824 371.045 116.061 370.989 116.591L370.581 120.47C370.56 120.669 370.609 120.842 370.728 120.988C370.847 121.135 371.005 121.218 371.204 121.239C371.721 121.294 372.293 121.34 372.919 121.379C373.545 121.418 374.132 121.446 374.68 121.464C375.322 121.478 375.964 121.491 376.606 121.505L376.334 124.091C375.583 124.093 374.827 124.08 374.066 124.054C373.41 124.039 372.696 124.01 371.923 123.969C371.163 123.93 370.431 123.873 369.729 123.799C368.827 123.704 368.133 123.356 367.646 122.756C367.16 122.155 366.964 121.404 367.059 120.502L367.539 115.927ZM378.115 121.463L381.695 121.839L381.402 124.624L379.78 126.665L377.99 126.477L378.995 124.572L377.801 124.446L378.115 121.463ZM394.482 117.854C393.952 117.798 393.659 118.036 393.603 118.566L393.488 119.66L396.87 120.015L396.985 118.921C397.04 118.391 396.803 118.098 396.273 118.042L394.482 117.854ZM390.133 118.101C390.237 117.106 390.597 116.36 391.213 115.861C391.843 115.351 392.655 115.148 393.65 115.253L397.628 115.671C398.622 115.775 399.368 116.142 399.865 116.771C400.377 117.388 400.58 118.193 400.476 119.188L400.089 122.867L393.227 122.146L393.143 122.942C393.122 123.141 393.171 123.313 393.29 123.46C393.409 123.607 393.567 123.69 393.766 123.711C394.336 123.771 394.954 123.823 395.62 123.866C396.299 123.91 396.933 123.943 397.52 123.965C398.202 123.983 398.884 124.001 399.566 124.019L399.305 126.505C398.527 126.504 397.731 126.487 396.917 126.456C396.222 126.436 395.468 126.404 394.654 126.358C393.841 126.313 393.057 126.251 392.301 126.171C391.399 126.077 390.705 125.729 390.219 125.128C389.732 124.527 389.536 123.776 389.631 122.874L390.133 118.101ZM405.953 116.747L406.048 117.762C406.416 117.573 406.808 117.413 407.224 117.283C407.584 117.173 407.983 117.081 408.42 117.006C408.858 116.918 409.302 116.898 409.753 116.945L410.648 117.039C411.55 117.134 412.244 117.482 412.731 118.083C413.217 118.683 413.413 119.435 413.318 120.336L412.503 128.094L409.022 127.728L409.775 120.567C409.796 120.368 409.747 120.196 409.628 120.049C409.509 119.903 409.351 119.819 409.152 119.798L408.456 119.725C408.204 119.698 407.936 119.69 407.654 119.701C407.371 119.711 407.108 119.731 406.863 119.759C406.579 119.782 406.301 119.82 406.027 119.872L405.243 127.331L401.762 126.965L402.87 116.423L405.953 116.747ZM415.164 120.933C415.268 119.938 415.628 119.192 416.244 118.693C416.874 118.183 417.686 117.98 418.681 118.085L426.04 118.858L424.87 129.997C424.775 130.898 424.427 131.593 423.826 132.079C423.225 132.566 422.474 132.762 421.572 132.667C420.817 132.587 420.036 132.485 419.232 132.36C418.427 132.236 417.683 132.11 416.999 131.985C416.195 131.847 415.413 131.698 414.653 131.537L414.924 128.951C415.595 129.076 416.266 129.2 416.936 129.324C417.516 129.425 418.135 129.524 418.796 129.62C419.456 129.716 420.078 129.795 420.661 129.856C420.86 129.877 421.033 129.828 421.179 129.709C421.326 129.591 421.41 129.432 421.43 129.233L421.535 128.239C421.142 128.278 420.744 128.303 420.341 128.314C419.99 128.331 419.614 128.338 419.212 128.336C418.823 128.336 418.457 128.317 418.112 128.281L417.416 128.208C416.514 128.113 415.82 127.765 415.333 127.164C414.847 126.564 414.651 125.812 414.746 124.911L415.164 120.933ZM418.268 124.879C418.247 125.078 418.296 125.25 418.415 125.397C418.534 125.543 418.692 125.627 418.891 125.648L419.389 125.7C419.707 125.734 420.006 125.758 420.286 125.775C420.58 125.779 420.842 125.779 421.07 125.776C421.325 125.776 421.567 125.768 421.796 125.752L422.277 121.177L419.493 120.885C418.962 120.829 418.669 121.066 418.613 121.597L418.268 124.879ZM431.671 127.494C431.923 127.52 432.19 127.528 432.473 127.518C432.755 127.507 433.019 127.488 433.263 127.46C433.547 127.436 433.826 127.399 434.099 127.347L434.225 126.154L431.341 125.85C431.142 125.83 430.969 125.878 430.823 125.997C430.676 126.116 430.592 126.275 430.571 126.473L430.55 126.672C430.53 126.871 430.578 127.044 430.697 127.191C430.816 127.337 430.975 127.421 431.173 127.442L431.671 127.494ZM429.687 130.101C428.786 130.006 428.092 129.658 427.605 129.058C427.118 128.457 426.923 127.705 427.017 126.804L427.111 125.909C427.206 125.007 427.554 124.313 428.155 123.826C428.756 123.34 429.507 123.144 430.409 123.239L434.486 123.667L434.57 122.872C434.591 122.673 434.542 122.5 434.423 122.354C434.304 122.207 434.146 122.123 433.947 122.102C433.416 122.047 432.837 122.006 432.21 121.98C431.597 121.943 431.017 121.915 430.469 121.898C429.827 121.884 429.186 121.863 428.545 121.836L428.806 119.35C429.544 119.347 430.294 119.359 431.055 119.385C431.71 119.4 432.425 119.429 433.198 119.47C433.971 119.511 434.709 119.568 435.412 119.642C436.314 119.737 437.008 120.085 437.494 120.685C437.981 121.286 438.177 122.037 438.082 122.939L437.267 130.696L434.184 130.372L434.089 129.357C433.721 129.546 433.329 129.706 432.913 129.837C432.553 129.946 432.154 130.038 431.717 130.113C431.279 130.201 430.834 130.221 430.384 130.174L429.687 130.101ZM439.924 123.535C440.029 122.54 440.389 121.794 441.004 121.296C441.634 120.785 442.447 120.583 443.441 120.687L450.801 121.461L449.63 132.599C449.535 133.501 449.187 134.195 448.587 134.682C447.986 135.168 447.235 135.364 446.333 135.269C445.577 135.19 444.797 135.088 443.992 134.963C443.187 134.838 442.443 134.713 441.759 134.587C440.956 134.449 440.174 134.3 439.413 134.14L439.685 131.554C440.355 131.678 441.026 131.802 441.697 131.926C442.276 132.027 442.896 132.126 443.556 132.222C444.216 132.318 444.838 132.397 445.422 132.459C445.621 132.479 445.793 132.431 445.94 132.312C446.086 132.193 446.17 132.034 446.191 131.836L446.295 130.841C445.903 130.88 445.504 130.905 445.101 130.917C444.751 130.933 444.375 130.941 443.973 130.939C443.584 130.938 443.217 130.92 442.872 130.883L442.176 130.81C441.274 130.715 440.58 130.368 440.094 129.767C439.607 129.166 439.411 128.415 439.506 127.513L439.924 123.535ZM443.029 127.481C443.008 127.68 443.057 127.853 443.175 127.999C443.294 128.146 443.453 128.23 443.652 128.25L444.149 128.303C444.467 128.336 444.766 128.361 445.046 128.377C445.341 128.381 445.602 128.382 445.83 128.379C446.085 128.379 446.327 128.371 446.557 128.355L447.038 123.78L444.253 123.487C443.723 123.431 443.429 123.669 443.374 124.199L443.029 127.481ZM456.928 124.417C456.397 124.361 456.104 124.599 456.048 125.129L455.933 126.223L459.315 126.579L459.43 125.485C459.485 124.954 459.248 124.661 458.718 124.605L456.928 124.417ZM452.578 124.664C452.682 123.669 453.042 122.923 453.658 122.424C454.288 121.914 455.1 121.711 456.095 121.816L460.073 122.234C461.068 122.339 461.813 122.705 462.31 123.334C462.822 123.951 463.026 124.756 462.921 125.751L462.534 129.431L455.672 128.709L455.588 129.505C455.567 129.704 455.616 129.877 455.735 130.023C455.854 130.17 456.012 130.253 456.211 130.274C456.782 130.334 457.4 130.386 458.065 130.429C458.744 130.474 459.378 130.507 459.965 130.528C460.647 130.546 461.329 130.564 462.011 130.582L461.75 133.069C460.972 133.067 460.176 133.051 459.362 133.019C458.667 132.999 457.913 132.967 457.1 132.922C456.286 132.877 455.502 132.814 454.746 132.735C453.844 132.64 453.15 132.292 452.664 131.691C452.177 131.091 451.981 130.339 452.076 129.438L452.578 124.664ZM477.365 126.967C477.14 126.944 476.892 126.938 476.623 126.95C476.354 126.962 476.103 126.982 475.872 127.012C475.602 127.037 475.323 127.075 475.036 127.125L474.252 134.584L470.771 134.218L471.524 127.057C471.545 126.858 471.496 126.686 471.377 126.539C471.258 126.393 471.1 126.309 470.901 126.288L470.801 126.278C470.576 126.254 470.328 126.248 470.059 126.26C469.79 126.272 469.539 126.292 469.308 126.322C469.038 126.347 468.759 126.385 468.472 126.435L467.688 133.894L464.207 133.528L465.315 122.986L468.398 123.31L468.493 124.326C468.861 124.136 469.253 123.976 469.669 123.846C470.029 123.736 470.428 123.644 470.865 123.569C471.303 123.481 471.748 123.461 472.198 123.508L472.397 123.529C472.994 123.592 473.479 123.757 473.854 124.024C474.241 124.293 474.542 124.613 474.758 124.984C475.113 124.794 475.506 124.634 475.935 124.504C476.295 124.395 476.713 124.305 477.19 124.234C477.681 124.152 478.205 124.14 478.762 124.198L478.961 124.219C479.863 124.314 480.557 124.662 481.043 125.263C481.53 125.863 481.726 126.615 481.631 127.516L480.816 135.274L477.335 134.908L478.088 127.747C478.108 127.548 478.06 127.376 477.941 127.229C477.822 127.083 477.663 126.999 477.465 126.978L477.365 126.967ZM487.846 127.667C487.315 127.611 487.022 127.848 486.966 128.379L486.851 129.473L490.233 129.828L490.348 128.734C490.403 128.204 490.166 127.911 489.636 127.855L487.846 127.667ZM483.496 127.913C483.6 126.919 483.96 126.173 484.576 125.674C485.206 125.164 486.018 124.961 487.013 125.066L490.991 125.484C491.986 125.588 492.731 125.955 493.228 126.584C493.74 127.2 493.943 128.006 493.839 129.001L493.452 132.68L486.59 131.959L486.506 132.755C486.485 132.954 486.534 133.126 486.653 133.273C486.772 133.419 486.93 133.503 487.129 133.524C487.7 133.584 488.318 133.635 488.983 133.679C489.662 133.723 490.296 133.756 490.883 133.778C491.565 133.796 492.247 133.814 492.929 133.832L492.668 136.318C491.89 136.317 491.094 136.3 490.28 136.268C489.585 136.249 488.831 136.217 488.018 136.171C487.204 136.126 486.42 136.064 485.664 135.984C484.762 135.89 484.068 135.542 483.582 134.941C483.095 134.34 482.899 133.589 482.994 132.687L483.496 127.913ZM499.316 126.56L499.411 127.575C499.779 127.386 500.171 127.226 500.587 127.096C500.947 126.986 501.346 126.894 501.783 126.819C502.221 126.731 502.666 126.711 503.116 126.758L504.011 126.852C504.913 126.947 505.607 127.295 506.094 127.896C506.58 128.496 506.776 129.248 506.681 130.149L505.866 137.907L502.385 137.541L503.138 130.38C503.159 130.181 503.11 130.009 502.991 129.862C502.873 129.715 502.714 129.632 502.515 129.611L501.819 129.538C501.567 129.511 501.299 129.503 501.017 129.514C500.734 129.524 500.471 129.543 500.226 129.571C499.942 129.595 499.664 129.633 499.39 129.685L498.606 137.143L495.125 136.778L496.233 126.236L499.316 126.56ZM513.138 128.012L515.624 128.274L515.342 130.959L512.856 130.698L512.375 135.272C512.354 135.471 512.403 135.644 512.521 135.791C512.64 135.937 512.799 136.021 512.998 136.042L515.583 136.314L515.312 138.899C514.923 138.899 514.515 138.889 514.088 138.871C513.727 138.86 513.321 138.838 512.868 138.803C512.415 138.783 511.962 138.748 511.512 138.701C510.61 138.606 509.916 138.258 509.429 137.658C508.943 137.057 508.747 136.306 508.842 135.404L509.375 130.332L508.181 130.206L508.464 127.521L509.657 127.647L510.306 125.302L513.389 125.626L513.138 128.012ZM527.721 137.589C527.973 137.616 528.241 137.624 528.523 137.613C528.806 137.603 529.069 137.584 529.314 137.556C529.598 137.532 529.876 137.494 530.15 137.442L530.275 136.249L527.391 135.946C527.192 135.925 527.02 135.974 526.873 136.092C526.727 136.211 526.643 136.37 526.622 136.569L526.601 136.768C526.58 136.967 526.629 137.139 526.748 137.286C526.866 137.432 527.025 137.516 527.224 137.537L527.721 137.589ZM525.738 140.196C524.836 140.101 524.142 139.754 523.656 139.153C523.169 138.552 522.973 137.801 523.068 136.899L523.162 136.004C523.257 135.102 523.605 134.408 524.205 133.922C524.806 133.435 525.558 133.239 526.459 133.334L530.537 133.763L530.62 132.967C530.641 132.768 530.592 132.595 530.474 132.449C530.355 132.302 530.196 132.219 529.997 132.198C529.467 132.142 528.888 132.101 528.261 132.075C527.648 132.038 527.068 132.01 526.52 131.993C525.878 131.979 525.236 131.959 524.596 131.932L524.857 129.445C525.595 129.442 526.344 129.454 527.106 129.481C527.761 129.496 528.475 129.524 529.248 129.565C530.022 129.606 530.76 129.663 531.463 129.737C532.364 129.832 533.058 130.18 533.545 130.781C534.031 131.382 534.227 132.133 534.133 133.035L533.317 140.792L530.234 140.468L530.14 139.452C529.771 139.641 529.379 139.801 528.963 139.932C528.603 140.042 528.205 140.134 527.768 140.209C527.33 140.297 526.885 140.317 526.434 140.269L525.738 140.196ZM539.591 130.793L539.686 131.808C540.054 131.619 540.446 131.459 540.862 131.329C541.222 131.219 541.621 131.127 542.058 131.052C542.496 130.964 542.941 130.944 543.391 130.991L544.286 131.085C545.188 131.18 545.882 131.528 546.369 132.129C546.855 132.729 547.051 133.481 546.956 134.382L546.141 142.14L542.66 141.774L543.413 134.613C543.434 134.414 543.385 134.242 543.266 134.095C543.148 133.949 542.989 133.865 542.79 133.844L542.094 133.771C541.842 133.744 541.575 133.736 541.292 133.747C541.009 133.757 540.746 133.777 540.502 133.804C540.217 133.828 539.939 133.866 539.665 133.918L538.881 141.377L535.4 141.011L536.508 130.469L539.591 130.793ZM555.686 143.143L555.592 142.127C555.223 142.317 554.831 142.476 554.415 142.607C554.055 142.717 553.657 142.809 553.22 142.884C552.782 142.972 552.337 142.992 551.886 142.945L550.991 142.85C550.089 142.756 549.395 142.408 548.909 141.807C548.422 141.206 548.226 140.455 548.321 139.553L548.802 134.979C548.906 133.984 549.266 133.238 549.882 132.739C550.512 132.229 551.324 132.026 552.319 132.131L556.396 132.559L556.752 129.178L560.233 129.544L558.769 143.467L555.686 143.143ZM556.114 135.244L553.131 134.931C552.6 134.875 552.307 135.112 552.251 135.643L551.865 139.322C551.844 139.521 551.893 139.694 552.011 139.841C552.13 139.987 552.289 140.071 552.488 140.092L553.184 140.165C553.436 140.191 553.703 140.199 553.986 140.189C554.268 140.178 554.532 140.159 554.776 140.131C555.06 140.107 555.339 140.07 555.612 140.018L556.114 135.244ZM66.0486 110.382C66.1532 109.388 66.5132 108.641 67.1286 108.143C67.7588 107.633 68.5711 107.43 69.5656 107.534L75.9305 108.203L75.6483 110.889L70.3773 110.335C69.8469 110.279 69.5538 110.516 69.4981 111.047L69.0904 114.925C69.0695 115.124 69.1184 115.297 69.2371 115.443C69.3557 115.59 69.5145 115.674 69.7134 115.694C70.2306 115.749 70.8022 115.796 71.4282 115.835C72.0542 115.873 72.6412 115.902 73.189 115.919C73.8311 115.933 74.4731 115.947 75.1152 115.961L74.8434 118.546C74.0925 118.548 73.3363 118.535 72.5749 118.509C71.9196 118.494 71.2053 118.466 70.432 118.425C69.672 118.385 68.9406 118.328 68.2378 118.254C67.3361 118.159 66.642 117.812 66.1554 117.211C65.6689 116.61 65.473 115.859 65.5678 114.957L66.0486 110.382ZM87.7627 117.089C87.6581 118.083 87.2908 118.836 86.6607 119.346C86.0452 119.844 85.2402 120.041 84.2457 119.937L79.6709 119.456C78.6764 119.351 77.9233 118.991 77.4116 118.374C76.9146 117.745 76.7184 116.934 76.8229 115.939L77.3038 111.364C77.4083 110.37 77.7683 109.623 78.3837 109.125C79.0139 108.615 79.8262 108.412 80.8207 108.516L85.3955 108.997C86.39 109.102 87.1358 109.468 87.6328 110.097C88.1445 110.714 88.348 111.519 88.2435 112.514L87.7627 117.089ZM84.7313 112.446C84.7871 111.916 84.5497 111.623 84.0193 111.567L81.6325 111.316C81.102 111.261 80.809 111.498 80.7532 112.028L80.3351 116.006C80.2794 116.537 80.5167 116.83 81.0471 116.886L83.434 117.137C83.9644 117.192 84.2574 116.955 84.3132 116.425L84.7313 112.446ZM93.7263 110.074L93.8206 111.089C94.1891 110.9 94.5813 110.74 94.9972 110.61C95.3573 110.5 95.7558 110.408 96.1927 110.333C96.6309 110.245 97.0755 110.225 97.5264 110.272L98.4214 110.366C99.3231 110.461 100.017 110.809 100.504 111.409C100.99 112.01 101.186 112.762 101.091 113.663L100.276 121.421L96.7953 121.055L97.5479 113.894C97.5688 113.695 97.5199 113.522 97.4012 113.376C97.2826 113.229 97.1238 113.146 96.9249 113.125L96.2287 113.052C95.9768 113.025 95.7095 113.017 95.4268 113.028C95.1442 113.038 94.8807 113.057 94.6364 113.085C94.3524 113.109 94.0736 113.147 93.8 113.199L93.0161 120.657L89.5352 120.292L90.6432 109.75L93.7263 110.074ZM110.531 111.84L114.211 112.227L109.125 122.351L105.147 121.932L102.277 110.972L105.957 111.359L107.491 118.76L110.531 111.84ZM118.949 115.037C118.419 114.982 118.126 115.219 118.07 115.749L117.955 116.843L121.337 117.199L121.452 116.105C121.507 115.574 121.27 115.281 120.74 115.226L118.949 115.037ZM114.6 115.284C114.704 114.29 115.064 113.543 115.68 113.045C116.31 112.535 117.122 112.332 118.117 112.436L122.095 112.854C123.089 112.959 123.835 113.325 124.332 113.954C124.844 114.571 125.047 115.377 124.943 116.371L124.556 120.051L117.694 119.33L117.61 120.125C117.589 120.324 117.638 120.497 117.757 120.644C117.876 120.79 118.034 120.874 118.233 120.895C118.804 120.955 119.422 121.006 120.087 121.049C120.766 121.094 121.4 121.127 121.987 121.148C122.669 121.167 123.351 121.185 124.033 121.203L123.772 123.689C122.994 123.688 122.198 123.671 121.384 123.639C120.689 123.62 119.935 123.587 119.121 123.542C118.308 123.497 117.524 123.434 116.768 123.355C115.866 123.26 115.172 122.912 114.686 122.312C114.199 121.711 114.003 120.96 114.098 120.058L114.6 115.284ZM130.42 113.93L130.483 115.244C130.816 115.011 131.18 114.801 131.575 114.615C131.913 114.463 132.302 114.329 132.743 114.215C133.198 114.102 133.69 114.073 134.22 114.129L135.115 114.223L134.791 117.306L133.101 117.128C132.756 117.092 132.421 117.09 132.096 117.123C131.784 117.157 131.505 117.195 131.259 117.236C130.971 117.3 130.702 117.372 130.452 117.453L129.71 124.514L126.229 124.148L127.337 113.606L130.42 113.93ZM139.324 118.184C139.303 118.383 139.352 118.556 139.47 118.703C139.589 118.849 139.748 118.933 139.947 118.954L143.527 119.33C144.429 119.425 145.123 119.773 145.609 120.373C146.096 120.974 146.292 121.725 146.197 122.627L146.113 123.423C146.018 124.324 145.671 125.019 145.07 125.505C144.469 125.992 143.718 126.188 142.816 126.093C141.967 126.004 141.101 125.892 140.217 125.759C139.332 125.626 138.522 125.494 137.785 125.363C136.928 125.219 136.1 125.065 135.299 124.901L135.571 122.315C136.282 122.443 136.999 122.572 137.723 122.702C138.355 122.808 139.041 122.914 139.781 123.019C140.521 123.123 141.229 123.211 141.905 123.282C142.104 123.303 142.276 123.254 142.423 123.135C142.57 123.017 142.653 122.858 142.674 122.659L142.747 121.963L138.471 121.513C137.569 121.419 136.875 121.071 136.389 120.47C135.902 119.869 135.706 119.118 135.801 118.216L135.874 117.52C135.969 116.618 136.317 115.924 136.917 115.438C137.518 114.951 138.27 114.755 139.171 114.85L145.934 115.561L145.662 118.147L140.093 117.561C139.894 117.54 139.721 117.589 139.575 117.708C139.428 117.827 139.344 117.985 139.324 118.184ZM152.761 116.681L151.694 126.825L148.214 126.459L148.998 119L147.506 118.843L147.788 116.158L152.761 116.681ZM149.698 112.337L153.179 112.703L152.886 115.487L149.405 115.121L149.698 112.337ZM165.042 125.211C164.938 126.206 164.571 126.958 163.94 127.468C163.325 127.967 162.52 128.164 161.525 128.059L156.951 127.578C155.956 127.474 155.203 127.113 154.691 126.496C154.194 125.868 153.998 125.056 154.103 124.061L154.584 119.487C154.688 118.492 155.048 117.746 155.664 117.247C156.294 116.737 157.106 116.534 158.101 116.639L162.675 117.119C163.67 117.224 164.416 117.591 164.913 118.219C165.424 118.836 165.628 119.642 165.523 120.636L165.042 125.211ZM162.011 120.569C162.067 120.039 161.83 119.745 161.299 119.69L158.912 119.439C158.382 119.383 158.089 119.62 158.033 120.151L157.615 124.129C157.559 124.659 157.796 124.952 158.327 125.008L160.714 125.259C161.244 125.315 161.537 125.077 161.593 124.547L162.011 120.569ZM171.006 118.196L171.1 119.212C171.469 119.022 171.861 118.863 172.277 118.732C172.637 118.622 173.036 118.53 173.472 118.455C173.911 118.367 174.355 118.347 174.806 118.394L175.701 118.489C176.603 118.583 177.297 118.931 177.784 119.532C178.27 120.133 178.466 120.884 178.371 121.786L177.556 129.543L174.075 129.177L174.828 122.017C174.849 121.818 174.8 121.645 174.681 121.498C174.562 121.352 174.404 121.268 174.205 121.247L173.508 121.174C173.257 121.148 172.989 121.14 172.707 121.15C172.424 121.161 172.16 121.18 171.916 121.208C171.632 121.232 171.353 121.269 171.08 121.321L170.296 128.78L166.815 128.414L167.923 117.872L171.006 118.196ZM192.078 119.506C191.879 119.485 191.707 119.534 191.56 119.653C191.414 119.771 191.33 119.93 191.309 120.129L191.204 121.124L194.486 121.468L194.204 124.154L190.922 123.809L190.18 130.87L186.699 130.504L187.441 123.443L186.049 123.297L186.331 120.611L187.724 120.758L187.87 119.365C187.965 118.464 188.313 117.77 188.913 117.283C189.514 116.796 190.265 116.601 191.167 116.695C191.618 116.743 192.114 116.808 192.655 116.892C193.21 116.964 193.732 117.039 194.22 117.117C194.786 117.216 195.353 117.31 195.92 117.396L195.638 120.081C195.256 120.014 194.862 119.939 194.455 119.856C194.113 119.794 193.73 119.733 193.307 119.675C192.886 119.604 192.476 119.548 192.078 119.506ZM206.211 129.538C206.106 130.533 205.739 131.285 205.109 131.795C204.494 132.294 203.689 132.491 202.694 132.386L198.119 131.905C197.125 131.801 196.372 131.44 195.86 130.823C195.363 130.195 195.167 129.383 195.271 128.388L195.752 123.814C195.857 122.819 196.217 122.073 196.832 121.574C197.462 121.064 198.275 120.861 199.269 120.966L203.844 121.446C204.838 121.551 205.584 121.918 206.081 122.546C206.593 123.163 206.796 123.969 206.692 124.963L206.211 129.538ZM203.18 124.896C203.235 124.366 202.998 124.072 202.468 124.017L200.081 123.766C199.55 123.71 199.257 123.947 199.202 124.478L198.783 128.456C198.728 128.986 198.965 129.279 199.495 129.335L201.882 129.586C202.413 129.642 202.706 129.404 202.762 128.874L203.18 124.896ZM212.175 122.523L212.238 123.837C212.57 123.604 212.934 123.394 213.329 123.208C213.667 123.055 214.057 122.922 214.498 122.808C214.952 122.694 215.444 122.666 215.975 122.721L216.87 122.816L216.546 125.899L214.855 125.721C214.51 125.685 214.175 125.683 213.85 125.716C213.538 125.75 213.259 125.788 213.014 125.829C212.725 125.893 212.456 125.965 212.207 126.046L211.464 133.107L207.984 132.741L209.092 122.199L212.175 122.523ZM231.861 124.592L235.541 124.979L230.413 135.501C229.919 136.508 229.338 137.245 228.673 137.711C228.006 138.19 227.148 138.375 226.101 138.265C225.849 138.239 225.572 138.196 225.27 138.137C224.979 138.094 224.703 138.044 224.44 137.99C224.138 137.931 223.837 137.866 223.536 137.794L223.808 135.209L225.598 135.397C226.102 135.45 226.441 135.345 226.616 135.082C226.805 134.82 226.819 134.426 226.66 133.9L223.607 123.725L227.287 124.111L229.062 131.136L231.861 124.592ZM246.195 133.741C246.09 134.735 245.723 135.488 245.093 135.998C244.477 136.496 243.672 136.693 242.678 136.589L238.103 136.108C237.108 136.003 236.355 135.643 235.844 135.026C235.347 134.397 235.15 133.585 235.255 132.591L235.736 128.016C235.84 127.022 236.2 126.275 236.816 125.777C237.446 125.266 238.258 125.064 239.253 125.168L243.828 125.649C244.822 125.753 245.568 126.12 246.065 126.749C246.576 127.366 246.78 128.171 246.675 129.166L246.195 133.741ZM243.163 129.098C243.219 128.568 242.982 128.275 242.451 128.219L240.064 127.968C239.534 127.913 239.241 128.15 239.185 128.68L238.767 132.658C238.711 133.189 238.949 133.482 239.479 133.538L241.866 133.788C242.396 133.844 242.689 133.607 242.745 133.076L243.163 129.098ZM255.625 137.748L255.531 136.733C255.162 136.922 254.77 137.082 254.354 137.213C253.994 137.322 253.596 137.414 253.159 137.489C252.72 137.577 252.276 137.597 251.825 137.55L250.93 137.456C250.028 137.361 249.334 137.013 248.848 136.413C248.361 135.812 248.165 135.061 248.26 134.159L249.075 126.402L252.556 126.767L251.803 133.928C251.783 134.127 251.831 134.3 251.95 134.446C252.069 134.593 252.228 134.676 252.426 134.697L253.123 134.77C253.375 134.797 253.642 134.805 253.925 134.794C254.207 134.784 254.471 134.765 254.715 134.737C254.999 134.713 255.278 134.675 255.551 134.624L256.335 127.165L259.816 127.53L258.708 138.072L255.625 137.748ZM265.18 128.094L265.243 129.408C265.575 129.175 265.939 128.965 266.334 128.779C266.672 128.626 267.061 128.493 267.503 128.379C267.957 128.265 268.449 128.237 268.98 128.292L269.875 128.387L269.551 131.47L267.86 131.292C267.515 131.256 267.18 131.254 266.855 131.287C266.543 131.321 266.264 131.359 266.019 131.4C265.73 131.464 265.461 131.536 265.211 131.617L264.469 138.678L260.988 138.312L262.096 127.77L265.18 128.094ZM284.532 133.346C284.553 133.147 284.504 132.974 284.385 132.828C284.267 132.681 284.108 132.597 283.909 132.576L283.412 132.524C283.08 132.489 282.774 132.471 282.492 132.468C282.213 132.452 281.959 132.445 281.73 132.448C281.474 132.461 281.232 132.469 281.004 132.472L280.46 137.644L283.245 137.936C283.775 137.992 284.068 137.755 284.124 137.224L284.532 133.346ZM287.574 137.889C287.469 138.883 287.102 139.636 286.472 140.146C285.856 140.644 285.051 140.841 284.057 140.737L276.697 139.963L278.161 126.04L281.641 126.406L281.265 129.986C281.658 129.947 282.056 129.922 282.46 129.91C282.81 129.894 283.18 129.886 283.568 129.886C283.97 129.888 284.344 129.907 284.688 129.944L285.385 130.017C286.286 130.111 286.98 130.459 287.467 131.06C287.953 131.661 288.149 132.412 288.055 133.314L287.574 137.889ZM296.988 142.096L296.893 141.08C296.525 141.27 296.133 141.429 295.717 141.56C295.357 141.67 294.958 141.762 294.521 141.837C294.083 141.925 293.639 141.945 293.188 141.897L292.293 141.803C291.391 141.709 290.697 141.361 290.21 140.76C289.724 140.159 289.528 139.408 289.623 138.506L290.438 130.749L293.919 131.115L293.166 138.275C293.145 138.474 293.194 138.647 293.313 138.794C293.432 138.94 293.59 139.024 293.789 139.045L294.485 139.118C294.737 139.144 295.005 139.152 295.287 139.142C295.57 139.131 295.833 139.112 296.078 139.084C296.362 139.06 296.641 139.023 296.914 138.971L297.698 131.512L301.179 131.878L300.071 142.42L296.988 142.096ZM305.998 135.703C305.978 135.902 306.026 136.074 306.145 136.221C306.264 136.367 306.423 136.451 306.621 136.472L310.202 136.848C311.103 136.943 311.798 137.291 312.284 137.892C312.771 138.492 312.966 139.244 312.872 140.145L312.788 140.941C312.693 141.843 312.346 142.537 311.745 143.023C311.144 143.51 310.393 143.706 309.491 143.611C308.642 143.522 307.776 143.411 306.892 143.277C306.007 143.144 305.197 143.012 304.46 142.881C303.603 142.737 302.775 142.583 301.974 142.419L302.246 139.833C302.957 139.961 303.674 140.09 304.397 140.22C305.03 140.327 305.716 140.432 306.456 140.537C307.195 140.641 307.903 140.729 308.58 140.8C308.779 140.821 308.951 140.772 309.098 140.654C309.244 140.535 309.328 140.376 309.349 140.177L309.422 139.481L305.146 139.032C304.244 138.937 303.55 138.589 303.063 137.988C302.577 137.388 302.381 136.636 302.476 135.735L302.549 135.038C302.644 134.137 302.992 133.443 303.592 132.956C304.193 132.47 304.944 132.274 305.846 132.368L312.609 133.079L312.337 135.665L306.768 135.08C306.569 135.059 306.396 135.108 306.25 135.226C306.103 135.345 306.019 135.504 305.998 135.703ZM319.435 134.199L318.369 144.343L314.888 143.977L315.672 136.518L314.181 136.361L314.463 133.676L319.435 134.199ZM316.373 129.855L319.854 130.221L319.561 133.006L316.08 132.64L316.373 129.855ZM324.854 134.366L324.948 135.382C325.317 135.192 325.709 135.033 326.125 134.902C326.485 134.792 326.883 134.7 327.32 134.625C327.759 134.537 328.203 134.517 328.654 134.565L329.549 134.659C330.451 134.753 331.145 135.101 331.631 135.702C332.118 136.303 332.314 137.054 332.219 137.956L331.404 145.713L327.923 145.347L328.676 138.187C328.696 137.988 328.648 137.815 328.529 137.668C328.41 137.522 328.251 137.438 328.053 137.417L327.356 137.344C327.104 137.318 326.837 137.31 326.554 137.32C326.272 137.331 326.008 137.35 325.764 137.378C325.48 137.402 325.201 137.439 324.928 137.491L324.144 144.95L320.663 144.584L321.771 134.042L324.854 134.366ZM338.435 138.106C337.905 138.051 337.612 138.288 337.556 138.818L337.441 139.912L340.822 140.268L340.937 139.174C340.993 138.643 340.756 138.35 340.225 138.294L338.435 138.106ZM334.085 138.353C334.19 137.358 334.55 136.612 335.165 136.114C335.796 135.603 336.608 135.401 337.602 135.505L341.58 135.923C342.575 136.028 343.321 136.394 343.818 137.023C344.329 137.64 344.533 138.446 344.428 139.44L344.042 143.12L337.179 142.399L337.096 143.194C337.075 143.393 337.124 143.566 337.243 143.712C337.361 143.859 337.52 143.943 337.719 143.964C338.289 144.023 338.907 144.075 339.573 144.118C340.252 144.163 340.885 144.196 341.473 144.217C342.155 144.235 342.837 144.253 343.518 144.271L343.257 146.758C342.48 146.756 341.684 146.74 340.869 146.708C340.174 146.688 339.42 146.656 338.607 146.611C337.794 146.566 337.01 146.503 336.254 146.424C335.352 146.329 334.658 145.981 334.171 145.38C333.685 144.78 333.489 144.028 333.584 143.127L334.085 138.353ZM349.362 140.26C349.341 140.459 349.39 140.632 349.509 140.778C349.627 140.925 349.786 141.009 349.985 141.03L353.565 141.406C354.467 141.501 355.161 141.849 355.648 142.449C356.134 143.05 356.33 143.801 356.235 144.703L356.152 145.499C356.057 146.4 355.709 147.095 355.108 147.581C354.507 148.068 353.756 148.263 352.854 148.169C352.006 148.079 351.139 147.968 350.255 147.835C349.371 147.702 348.56 147.57 347.823 147.439C346.967 147.295 346.138 147.141 345.338 146.976L345.61 144.391C346.32 144.519 347.037 144.648 347.761 144.778C348.393 144.884 349.079 144.99 349.819 145.095C350.559 145.199 351.267 145.287 351.943 145.358C352.142 145.379 352.315 145.33 352.461 145.211C352.608 145.093 352.692 144.934 352.713 144.735L352.786 144.039L348.509 143.589C347.608 143.495 346.913 143.147 346.427 142.546C345.94 141.945 345.745 141.194 345.839 140.292L345.912 139.596C346.007 138.694 346.355 138 346.956 137.514C347.557 137.027 348.308 136.831 349.21 136.926L355.972 137.637L355.701 140.223L350.131 139.637C349.932 139.616 349.76 139.665 349.613 139.784C349.467 139.903 349.383 140.061 349.362 140.26ZM361.198 141.504C361.177 141.703 361.226 141.876 361.345 142.023C361.464 142.169 361.622 142.253 361.821 142.274L365.402 142.65C366.303 142.745 366.997 143.093 367.484 143.693C367.97 144.294 368.166 145.045 368.072 145.947L367.988 146.743C367.893 147.644 367.545 148.339 366.945 148.825C366.344 149.312 365.592 149.508 364.691 149.413C363.842 149.324 362.976 149.212 362.091 149.079C361.207 148.946 360.397 148.814 359.66 148.683C358.803 148.539 357.975 148.385 357.174 148.221L357.446 145.635C358.156 145.763 358.874 145.892 359.597 146.022C360.23 146.128 360.916 146.234 361.655 146.339C362.395 146.443 363.103 146.531 363.78 146.602C363.978 146.623 364.151 146.574 364.298 146.455C364.444 146.337 364.528 146.178 364.549 145.979L364.622 145.283L360.346 144.833C359.444 144.739 358.75 144.391 358.263 143.79C357.777 143.189 357.581 142.438 357.676 141.536L357.749 140.84C357.844 139.938 358.191 139.244 358.792 138.758C359.393 138.271 360.144 138.075 361.046 138.17L367.809 138.881L367.537 141.467L361.968 140.881C361.769 140.86 361.596 140.909 361.449 141.028C361.303 141.147 361.219 141.305 361.198 141.504ZM369.303 146.68L372.884 147.056L372.57 150.04L368.99 149.663L369.303 146.68Z" fill="#1C1C1C"/>
<rect x="17.4054" y="1.09905" width="645" height="156" rx="9" transform="rotate(6 17.4054 1.09905)" stroke="url(#paint0_angular)" stroke-width="2"/>
<defs>
<radialGradient id="paint0_angular" cx="0" cy="0" r="1" gradientUnits="userSpaceOnUse" gradientTransform="translate(340.015 79) rotate(90) scale(79 323.5)">
<stop stop-color="#F10000"/>
<stop offset="0.130208" stop-color="#EDD500"/>
<stop offset="0.3125" stop-color="#30EF00"/>
<stop offset="0.427083" stop-color="#00C6F1"/>
<stop offset="0.604167" stop-color="#0053F3"/>
<stop offset="0.776042" stop-color="#B200F1"/>
<stop offset="0.90625" stop-color="#EC0055"/>
</radialGradient>
</defs>
</svg>
